<svg width="100" height="176" viewBox="0 0 100 176" fill="none" xmlns="http://www.w3.org/2000/svg">
<path d="M0 38.879C0 38.879 0.432915 18.0358 12.3151 6.86788C12.2783 6.41637 12.3243 5.8635 12.4072 5.78979C12.4717 5.7345 13.1533 5.6055 13.8165 5.56864C19.8405 0.712606 28.4897 -1.72923 40.8969 1.39448C41.0351 0.915326 41.2193 0.565177 41.422 0.59282C42.122 0.666536 43.1721 1.00747 43.1905 1.45898C43.1905 1.56034 43.1905 1.77227 43.1721 2.02106C55.9293 5.84507 65.4443 14.4053 72.4815 24.3201C72.9421 24.0529 73.3382 23.9147 73.4763 24.0805C73.9277 24.6242 74.4435 25.6009 74.1395 25.9326C74.0842 25.9971 73.9645 26.1169 73.8171 26.2459C83.7098 41.0905 88.3613 58.386 90.2404 67.3241C90.6365 67.1582 91.0233 67.0569 91.3457 67.278C91.751 67.5545 91.5299 67.923 91.6497 68.31C91.797 68.7708 91.7141 68.6694 92.1471 69.0196C92.3865 69.2131 92.801 69.3697 92.9392 69.6646C93.105 70.0239 92.6629 70.6229 92.7458 70.9269C92.8195 71.2126 93.2524 71.3324 93.3721 71.5628C93.5748 71.9498 93.3905 72.1156 93.4458 72.4934C93.4827 72.733 93.7037 72.9449 93.7314 73.1661C93.7958 73.6176 93.4734 74.0507 93.6024 74.4561C93.8879 75.3591 93.7129 75.267 93.2247 76.1331C92.9208 76.6768 92.7734 76.9809 92.8102 77.6627C92.8839 79.0173 94.2287 79.5978 94.8643 80.768C95.1406 81.284 95.2972 81.8 95.3525 82.3806C95.4262 83.1269 95.4538 83.1914 95.8683 83.7627C96.3289 84.4077 96.6973 85.062 97.2039 85.6701C97.5908 86.1401 98.5948 87.0707 98.6408 87.6789C98.6869 88.287 98.2355 88.3239 98.5303 89.0703C98.7882 89.7337 99.1014 90.2221 99.2027 90.9316C99.3593 92.0189 99.479 93.1246 99.4882 94.2304C99.4975 95.0505 100.059 95.6863 99.9948 96.4879C99.9027 97.6213 98.3369 97.6305 97.3973 97.8517C96.8078 97.9899 96.246 98.1926 95.6933 98.4045C96.0065 100.183 96.3381 102.192 96.3381 102.643C96.3381 103.482 93.4919 104.32 92.8287 103.482C92.5247 103.104 92.3221 101.418 92.2023 99.6853C90.4707 99.9894 88.7298 99.713 86.906 99.8973C85.727 100.017 84.6217 100.699 83.4795 101.021C82.8255 101.206 82.1807 101.399 81.5175 101.519C81.2136 101.574 80.403 101.51 80.1819 101.731C79.9332 101.989 80.099 102.781 80.1819 103.076C80.4214 103.906 80.8451 104.477 80.8728 105.408C80.9096 106.9 80.2833 108.983 80.1635 109.996C79.9425 111.858 81.2596 112.844 81.8215 114.558C82.3465 116.179 82.3373 117.405 81.8031 119.008C81.6373 119.496 81.1583 120.436 81.2596 120.952C81.361 121.496 82.0702 122.104 82.3005 122.666C82.4479 123.016 82.54 124.058 82.8347 124.26C83.111 124.454 83.7927 124.233 84.1611 124.251C85.9757 124.334 87.9376 124.546 89.5035 125.587C90.5167 126.251 91.097 127.292 91.6497 128.315C92.1839 129.31 92.7826 130.277 93.0129 131.402C93.3353 132.996 93.1418 134.922 92.9392 136.506C92.6168 139.013 92.276 141.372 92.3773 143.896C92.4879 146.486 90.3141 147.969 88.9232 149.84C88.214 150.789 88.1218 151.895 87.3942 152.844C86.6297 153.839 85.6164 154.585 84.8243 155.553C83.5071 157.138 82.5215 158.649 82.1531 160.731C82.0149 161.524 81.8583 162.344 81.757 163.145C81.6925 163.634 81.7294 163.606 81.8307 164.002C81.886 164.214 82.0886 164.38 82.061 164.62C82.0241 165.025 81.4991 165.449 81.3425 165.836C81.1307 166.343 81.103 166.951 81.0386 167.495C80.9465 168.342 80.7714 169.163 80.7438 170.019C80.707 170.913 80.8912 171.881 80.8175 172.756C80.6701 174.516 78.2016 175.355 76.737 175.779C74.508 176.433 72.7855 175.511 70.7775 174.654C70.2985 174.452 69.1011 174.387 68.88 173.89C68.8155 173.733 69.0919 172.406 69.1932 172.222C69.4972 171.623 70.0314 171.577 70.363 171.061C70.7959 170.37 70.9341 169.596 71.017 168.803C71.1828 167.2 71.4038 165.726 73.246 165.228C73.246 163.579 73.3197 162.279 74.1579 160.796C75.3277 158.741 76.1291 156.741 76.5989 154.392C76.7002 153.894 76.7647 153.268 77.041 152.825C77.2252 152.521 77.4739 152.401 77.5476 152.079C77.6581 151.563 77.2344 150.807 77.262 150.254C77.2897 149.628 77.5107 149.01 77.7779 148.439C77.9713 148.015 78.1647 147.693 78.22 147.214C78.2753 146.762 78.5424 145.555 78.4411 145.186C78.1924 144.311 76.5804 144.652 75.8896 144.726C74.3698 144.882 72.9881 145.269 71.6341 145.979C71.1551 146.228 70.3814 146.532 70.0774 147.029C69.8748 147.361 69.9301 147.739 69.7274 148.08C73.6605 148.025 75.7607 152.991 74.858 156.345C74.4895 157.718 72.9513 158.151 71.6433 157.902C70.6025 157.7 69.9761 156.096 69.2485 155.322C68.2629 154.263 66.3286 153.986 64.9377 154.134C64.7351 155.221 64.2469 156.271 63.8047 157.285C63.2244 158.621 63.2152 159.92 63.0587 161.358C62.856 163.155 62.4876 165.283 61.0322 166.546C59.8624 167.559 58.5821 167.974 57.2649 168.683C56.6201 169.034 56.3254 169.209 55.5517 169.273C54.695 169.347 53.6358 169.697 52.7791 169.531C52.1989 169.421 51.7015 169.015 51.1488 168.812C50.0435 168.425 48.8829 168.425 47.7776 168.001C46.2762 167.421 46.4328 166.269 46.7183 164.813C47.0223 163.256 46.7736 161.717 47.3539 160.206C47.7868 159.073 47.4644 157.709 47.9249 156.585C48.2842 155.709 48.1552 154.677 48.8737 154.005C47.9157 153.959 47.9065 153.995 46.9946 153.682C46.967 153.618 46.967 153.544 46.9854 153.47C45.5853 153.139 43.7063 152.263 42.8312 151.148C42.1773 150.319 41.8549 149.186 41.6246 148.172C41.2838 146.633 40.989 145.011 40.8877 143.436C40.8325 142.468 40.9706 141.565 41.0996 140.717C41.247 139.75 40.4456 139.731 40.0864 138.957C40.3074 138.709 40.593 138.543 40.8509 138.34C40.2153 137.87 39.5337 137.769 40.0035 137.022C40.3719 136.433 41.0443 136.009 41.5601 135.557C42.8312 134.47 44.1945 133.493 45.5669 132.535L50.983 115.101C50.9554 115.009 50.9277 114.926 50.9001 114.834C50.2645 114.631 49.85 115.387 49.4632 115.746C48.5605 116.594 47.5473 117.331 46.4972 118.041C45.5393 118.686 44.2866 119.192 43.6418 120.197C43.255 120.814 43.0799 121.607 42.8497 122.298C42.4628 123.431 42.0852 124.085 41.1088 124.749C40.2982 125.302 40.6482 125.781 40.0864 126.481C39.3495 127.402 38.1152 128.075 37.277 128.914C36.1625 130.019 35.2229 131.263 34.1268 132.388C32.957 133.585 32.0544 135.06 30.6819 136.055C29.3003 137.059 27.8541 137.17 26.8225 138.699C26.233 139.566 25.9106 139.363 25.0263 139.446C24.5013 139.492 23.5342 140.155 23.5157 140.828C23.4973 141.436 24.5197 141.759 24.2434 142.422C24.8974 141.897 25.7448 142.643 25.6711 143.362C25.6066 144.025 25.0356 144.735 24.6671 145.269C24.2526 145.878 23.8197 146.421 23.4328 147.048C22.8341 148.025 21.9038 147.978 20.8538 148.319C20.2366 148.522 20.4208 148.412 20.0892 148.937C19.8037 149.397 19.8221 149.444 19.3247 149.554C18.9471 149.637 18.5141 149.526 18.1549 149.619C17.9431 149.674 17.547 149.987 17.3536 149.978C15.9351 149.941 14.9955 146.053 15.364 145.011C15.5666 144.412 16.2206 143.869 16.5706 143.334C16.9298 142.791 17.3259 142.275 17.7128 141.749C18.7352 140.367 19.6287 138.773 20.7248 137.465C20.08 136.405 20.8077 135.972 21.2775 135.014C21.4985 134.571 21.8209 133.714 22.2262 133.41C22.4841 133.217 22.7696 133.327 23.0276 133.143C23.4881 132.821 23.7921 131.936 24.1144 131.484C24.8513 130.471 25.6066 129.476 26.3251 128.444C28.0568 125.974 29.4016 123.053 31.5201 120.879C32.1557 120.224 32.5978 119.948 33.0584 119.156C33.2794 118.778 33.7492 117.875 34.265 118.114C34.4032 117.267 34.7624 117.442 35.3058 117.045C35.7664 116.714 35.8493 116.133 36.1625 115.7C36.4296 115.332 36.7796 115.083 37.0467 114.714C37.8389 113.627 38.3271 112.3 39.0271 111.157C39.7916 109.895 40.768 108.743 41.597 107.518C42.6839 105.914 43.4023 103.998 45.2261 103.122C45.8433 102.827 46.5525 102.45 47.1789 102.219C47.2065 102.146 47.2433 102.026 47.2525 101.961C46.6907 101.795 46.1933 101.878 46.0275 101.252C45.8893 100.763 46.1472 99.9802 46.2393 99.5103C46.5064 98.2202 46.5893 97.7595 45.4288 96.9026C45.134 96.6906 44.83 96.5248 44.6182 96.2207C44.4432 95.9627 44.4524 95.548 44.2774 95.3269C43.78 94.7187 42.426 94.6082 41.6799 94.4054C40.4732 94.0737 37.6639 93.0786 38.7047 91.42C39.5337 90.0931 42.0852 90.2037 43.1997 89.1532C43.9826 88.4068 43.2181 87.3748 43.3379 86.4718C43.43 85.7807 44.0747 84.9883 44.4155 84.3524C44.9129 83.4126 45.5393 82.0857 46.4051 81.4499C47.2157 80.8602 48.45 80.51 49.3895 80.1138C50.5961 79.607 52.7699 78.7777 54.0963 79.1278C55.7359 79.5609 57.2465 82.0028 58.0018 83.3941C58.5729 84.4538 58.9321 86.7759 60.1295 87.1352C61.502 87.5499 63.86 86.7574 64.993 87.771C65.8772 88.5635 65.1588 89.7521 64.6982 90.4617H64.339C65.3798 90.7289 66.1996 91.2817 66.826 92.1295C66.9181 92.0097 67.2589 91.678 67.4615 91.6964C67.8668 91.7332 67.7194 92.1479 67.9681 92.2861C68.401 92.5165 68.8984 92.1756 69.4143 91.9913C70.888 91.466 72.4078 91.2357 73.9277 90.9777C77.3081 90.3971 80.4859 89.4665 83.9861 89.8903C86.0309 90.1391 88.26 90.1391 90.3325 90.0193C90.4246 89.4204 90.1298 88.7938 90.0469 88.2133C89.9548 87.513 89.9548 86.7851 90.0469 86.094C90.268 84.4169 89.5772 83.689 88.9048 82.2055C88.6192 81.5881 88.4534 80.9431 88.4627 80.2981C88.4719 79.8926 88.6653 79.3121 88.564 78.9159C88.4166 78.3354 87.7995 77.6167 87.4955 77.0822C87.0718 76.3359 86.6573 75.5711 86.3257 74.7786C85.9204 73.8111 85.6717 72.8528 86.0586 71.8945C86.3165 71.2587 86.3717 71.102 86.3533 70.4386C85.9849 70.5952 85.598 70.6966 85.1927 70.6966C83.1295 70.6966 81.4623 68.5773 81.4623 65.9511C81.4623 63.3342 83.1387 61.2057 85.1927 61.2057C85.5335 61.2057 85.8467 61.2794 86.1599 61.39C84.1335 52.0649 80.1083 39.1001 72.2789 27.4622C71.9933 27.6373 71.7354 27.7387 71.6065 27.6834C71.1459 27.4807 70.4183 26.1077 70.4827 25.905C70.5012 25.8497 70.667 25.6931 70.9064 25.4811C64.3482 16.3957 55.3306 8.33298 42.9326 3.7626C42.8405 4.13118 42.7299 4.42604 42.5733 4.48133C42.1036 4.66562 40.6206 4.18647 40.5285 3.99296C40.4916 3.92846 40.5193 3.48617 40.5838 2.95173C29.2358 -0.614279 21.0103 1.54191 15.0784 6.20444C15.0969 6.68359 15.014 7.1996 14.7561 7.28253C14.5903 7.33782 14.056 7.44839 13.5402 7.51289C1.83299 18.2293 0 38.879 0 38.879ZM53.5068 123.431C52.1528 122.417 51.8488 120.833 52.0607 119.202C52.1804 118.28 51.9502 117.552 51.6554 116.815L48.1829 130.701C48.5697 130.425 48.9658 130.158 49.3434 129.872C50.8172 128.775 52.337 127.753 53.8661 126.776C53.3594 125.91 52.3278 124.27 53.5068 123.431Z" fill="#F2F2F2"/>
</svg>
