<svg width="174" height="50" viewBox="0 0 174 50" fill="none" xmlns="http://www.w3.org/2000/svg">
<path d="M172.955 44.2338C172.955 46.8983 170.751 49.0567 168.026 49.0567H6.73572C4.01175 49.0567 1.80069 46.8983 1.80069 44.2338V5.77268C1.80069 3.10938 4.01175 0.943481 6.73572 0.943481H168.025C170.751 0.943481 172.953 3.10938 172.953 5.77268L172.955 44.2338Z" fill="black"/>
<path d="M167.506 1.00156C170.474 1.00156 172.889 3.35625 172.889 6.25V43.75C172.889 46.6438 170.474 48.9984 167.506 48.9984H7.24928C4.28133 48.9984 1.86626 46.6438 1.86626 43.75V6.25C1.86626 3.35625 4.28133 1.00156 7.24928 1.00156H167.506ZM167.506 3.8147e-06H7.24928C3.72524 3.8147e-06 0.83902 2.81407 0.83902 6.25V43.75C0.83902 47.1859 3.72524 50 7.24928 50H167.506C171.03 50 173.916 47.1859 173.916 43.75V6.25C173.916 2.81407 171.03 3.8147e-06 167.506 3.8147e-06Z" fill="#A6A6A6"/>
<path d="M39.4658 24.7301C39.4286 20.7014 42.8492 18.7414 43.0056 18.6501C41.0684 15.8964 38.0658 15.5201 37.0107 15.4901C34.4889 15.2314 32.0427 16.9614 30.7581 16.9614C29.4479 16.9614 27.4697 15.5151 25.3376 15.5576C22.594 15.5989 20.0274 17.1476 18.6197 19.5526C15.7145 24.4564 17.8812 31.6626 20.6645 35.6264C22.0568 37.5676 23.6838 39.7351 25.8133 39.6589C27.8966 39.5751 28.6748 38.3639 31.1889 38.3639C33.6799 38.3639 34.4107 39.6589 36.5825 39.6101C38.8184 39.5751 40.2261 37.6601 41.5697 35.7014C43.1786 33.4764 43.8248 31.2851 43.8504 31.1726C43.7979 31.1551 39.5081 29.5589 39.4658 24.7301Z" fill="white"/>
<path d="M35.3633 12.8826C36.4838 11.5164 37.2504 9.65761 37.0376 7.77136C35.4158 7.84136 33.3876 8.86511 32.2197 10.2014C31.1863 11.3789 30.2633 13.3089 30.5017 15.1239C32.3235 15.2564 34.194 14.2276 35.3633 12.8826Z" fill="white"/>
<path d="M69.613 39.3801H66.7015L65.1066 34.4939H59.563L58.0438 39.3801H55.2092L60.7015 22.7451H64.0938L69.613 39.3801ZM64.6258 32.4439L63.1835 28.1001C63.031 27.6564 62.7451 26.6114 62.3233 24.9664H62.272C62.104 25.6739 61.8335 26.7189 61.4617 28.1001L60.0451 32.4439H64.6258Z" fill="white"/>
<path d="M83.7376 33.235C83.7376 35.275 83.1723 36.8875 82.0415 38.0713C81.0287 39.125 79.771 39.6513 78.2697 39.6513C76.6492 39.6513 75.4851 39.0838 74.7761 37.9488H74.7248V44.2675H71.9915V31.3338C71.9915 30.0513 71.9569 28.735 71.8902 27.385H74.294L74.4466 29.2863H74.4979C75.4094 27.8538 76.7928 27.1388 78.6492 27.1388C80.1005 27.1388 81.312 27.6975 82.2812 28.8163C83.253 29.9363 83.7376 31.4088 83.7376 33.235ZM80.953 33.3325C80.953 32.165 80.6838 31.2025 80.1428 30.445C79.5517 29.655 78.7581 29.26 77.7633 29.26C77.0889 29.26 76.4761 29.48 75.9287 29.9138C75.3799 30.3513 75.021 30.9225 74.853 31.63C74.7684 31.96 74.7261 32.23 74.7261 32.4425V34.4425C74.7261 35.315 75.0005 36.0513 75.5492 36.6525C76.0979 37.2538 76.8107 37.5538 77.6876 37.5538C78.7171 37.5538 79.5184 37.1663 80.0915 36.3938C80.6658 35.62 80.953 34.6 80.953 33.3325Z" fill="white"/>
<path d="M97.8866 33.235C97.8866 35.275 97.3212 36.8875 96.1891 38.0713C95.1776 39.125 93.9199 39.6513 92.4186 39.6513C90.7981 39.6513 89.634 39.0838 88.9263 37.9488H88.875V44.2675H86.1417V31.3338C86.1417 30.0513 86.1071 28.735 86.0404 27.385H88.4443L88.5968 29.2863H88.6481C89.5584 27.8538 90.9417 27.1388 92.7994 27.1388C94.2494 27.1388 95.4609 27.6975 96.4327 28.8163C97.4007 29.9363 97.8866 31.4088 97.8866 33.235ZM95.1019 33.3325C95.1019 32.165 94.8314 31.2025 94.2904 30.445C93.6994 29.655 92.9084 29.26 91.9122 29.26C91.2366 29.26 90.625 29.48 90.0763 29.9138C89.5276 30.3513 89.1699 30.9225 89.0019 31.63C88.9186 31.96 88.875 32.23 88.875 32.4425V34.4425C88.875 35.315 89.1494 36.0513 89.6955 36.6525C90.2442 37.2525 90.9571 37.5538 91.8366 37.5538C92.8661 37.5538 93.6673 37.1663 94.2404 36.3938C94.8148 35.62 95.1019 34.6 95.1019 33.3325Z" fill="white"/>
<path d="M113.708 34.7151C113.708 36.1301 113.204 37.2813 112.193 38.1701C111.081 39.1413 109.534 39.6263 107.545 39.6263C105.71 39.6263 104.238 39.2813 103.124 38.5901L103.757 36.3688C104.957 37.0763 106.274 37.4313 107.708 37.4313C108.738 37.4313 109.539 37.2038 110.115 36.7513C110.688 36.2988 110.974 35.6913 110.974 34.9338C110.974 34.2588 110.738 33.6901 110.265 33.2288C109.794 32.7676 109.008 32.3388 107.911 31.9426C104.924 30.8563 103.431 29.2651 103.431 27.1726C103.431 25.8051 103.954 24.6838 105.002 23.8113C106.045 22.9376 107.438 22.5013 109.179 22.5013C110.731 22.5013 112.021 22.7651 113.051 23.2913L112.367 25.4638C111.406 24.9538 110.318 24.6988 109.102 24.6988C108.14 24.6988 107.389 24.9301 106.851 25.3901C106.395 25.8013 106.167 26.3026 106.167 26.8963C106.167 27.5538 106.427 28.0976 106.951 28.5251C107.406 28.9201 108.233 29.3476 109.433 29.8088C110.901 30.3851 111.979 31.0588 112.672 31.8313C113.363 32.6013 113.708 33.5651 113.708 34.7151Z" fill="white"/>
<path d="M122.745 29.3851H119.733V35.2089C119.733 36.6901 120.263 37.4301 121.327 37.4301C121.816 37.4301 122.221 37.3889 122.542 37.3064L122.617 39.3301C122.079 39.5264 121.37 39.6251 120.492 39.6251C119.412 39.6251 118.568 39.3039 117.96 38.6626C117.353 38.0201 117.048 36.9426 117.048 35.4289V29.3826H115.253V27.3826H117.048V25.1864L119.733 24.3964V27.3826H122.745V29.3851Z" fill="white"/>
<path d="M136.339 33.2838C136.339 35.1275 135.798 36.6413 134.718 37.825C133.586 39.0438 132.083 39.6513 130.21 39.6513C128.405 39.6513 126.968 39.0675 125.896 37.9C124.824 36.7325 124.289 35.2588 124.289 33.4825C124.289 31.6238 124.84 30.1013 125.946 28.9175C127.05 27.7325 128.54 27.14 130.413 27.14C132.218 27.14 133.671 27.7238 134.767 28.8925C135.815 30.0263 136.339 31.49 136.339 33.2838ZM133.503 33.37C133.503 32.2638 133.26 31.315 132.769 30.5238C132.196 29.5663 131.377 29.0888 130.315 29.0888C129.217 29.0888 128.382 29.5675 127.809 30.5238C127.318 31.3163 127.076 32.28 127.076 33.42C127.076 34.5263 127.318 35.475 127.809 36.265C128.4 37.2225 129.226 37.7 130.291 37.7C131.335 37.7 132.154 37.2125 132.745 36.24C133.249 35.4338 133.503 34.475 133.503 33.37Z" fill="white"/>
<path d="M145.223 29.7288C144.952 29.68 144.664 29.655 144.361 29.655C143.4 29.655 142.656 30.0088 142.133 30.7175C141.678 31.3425 141.45 32.1325 141.45 33.0863V39.38H138.718L138.743 31.1625C138.743 29.78 138.709 28.5213 138.641 27.3863H141.022L141.121 29.6813H141.197C141.486 28.8925 141.941 28.2575 142.564 27.7813C143.173 27.3525 143.83 27.1388 144.539 27.1388C144.792 27.1388 145.02 27.1563 145.223 27.1875V29.7288Z" fill="white"/>
<path d="M157.448 32.8151C157.448 33.2926 157.416 33.6951 157.348 34.0238H149.148C149.18 35.2088 149.576 36.1151 150.338 36.7401C151.029 37.2988 151.923 37.5788 153.02 37.5788C154.234 37.5788 155.342 37.3901 156.338 37.0113L156.766 38.8613C155.602 39.3563 154.228 39.6026 152.642 39.6026C150.734 39.6026 149.237 39.0551 148.147 37.9613C147.06 36.8676 146.515 35.3988 146.515 33.5563C146.515 31.7476 147.021 30.2413 148.035 29.0401C149.097 27.7576 150.531 27.1163 152.337 27.1163C154.11 27.1163 155.452 27.7576 156.364 29.0401C157.085 30.0588 157.448 31.3188 157.448 32.8151ZM154.842 32.1238C154.86 31.3338 154.681 30.6513 154.311 30.0751C153.838 29.3338 153.111 28.9638 152.133 28.9638C151.239 28.9638 150.512 29.3251 149.957 30.0501C149.502 30.6263 149.231 31.3176 149.148 32.1226H154.842V32.1238Z" fill="white"/>
<path d="M63.7219 12.511C63.7219 13.9823 63.2693 15.0898 62.3655 15.8335C61.5283 16.5198 60.3386 16.8635 58.7975 16.8635C58.0334 16.8635 57.3796 16.831 56.8322 16.766V8.72725C57.5463 8.61475 58.3155 8.55725 59.1463 8.55725C60.6142 8.55725 61.7206 8.8685 62.4668 9.491C63.3027 10.1948 63.7219 11.201 63.7219 12.511ZM62.3052 12.5473C62.3052 11.5935 62.0463 10.8623 61.5283 10.3523C61.0104 9.8435 60.254 9.5885 59.2578 9.5885C58.8347 9.5885 58.4745 9.616 58.1757 9.6735V15.7848C58.3411 15.8098 58.6437 15.821 59.0834 15.821C60.1116 15.821 60.9052 15.5423 61.4642 14.9848C62.0232 14.4273 62.3052 13.6148 62.3052 12.5473Z" fill="white"/>
<path d="M71.2342 13.7961C71.2342 14.7023 70.9688 15.4448 70.4381 16.0273C69.8817 16.6261 69.1445 16.9248 68.224 16.9248C67.3368 16.9248 66.6304 16.6386 66.1035 16.0636C65.5778 15.4898 65.315 14.7661 65.315 13.8936C65.315 12.9811 65.5855 12.2323 66.1291 11.6511C66.6727 11.0698 67.4035 10.7786 68.324 10.7786C69.2112 10.7786 69.924 11.0648 70.4637 11.6386C70.9765 12.1961 71.2342 12.9161 71.2342 13.7961ZM69.8406 13.8386C69.8406 13.2948 69.7201 12.8286 69.4804 12.4398C69.1983 11.9698 68.7971 11.7348 68.2753 11.7348C67.7355 11.7348 67.3253 11.9698 67.0432 12.4398C66.8022 12.8286 66.683 13.3023 66.683 13.8623C66.683 14.4061 66.8035 14.8723 67.0432 15.2611C67.3342 15.7311 67.7394 15.9661 68.2624 15.9661C68.7753 15.9661 69.1778 15.7273 69.4676 15.2486C69.7163 14.8523 69.8406 14.3823 69.8406 13.8386Z" fill="white"/>
<path d="M81.3046 10.8986L79.4136 16.7911H78.1828L77.3995 14.2323C77.2007 13.5936 77.0392 12.9586 76.9136 12.3286H76.8892C76.7725 12.9761 76.611 13.6098 76.4033 14.2323L75.5713 16.7911H74.3264L72.5482 10.8986H73.929L74.6123 13.6998C74.7777 14.3623 74.9136 14.9936 75.0225 15.5911H75.0469C75.1469 15.0986 75.3123 14.4711 75.5456 13.7123L76.4033 10.8998H77.4982L78.32 13.6523C78.5187 14.3236 78.6802 14.9698 78.8046 15.5923H78.8418C78.9328 14.9861 79.07 14.3398 79.252 13.6523L79.9854 10.8998H81.3046V10.8986Z" fill="white"/>
<path d="M88.27 16.7912H86.9264V13.4162C86.9264 12.3762 86.5213 11.8562 85.7085 11.8562C85.3097 11.8562 84.9879 11.9987 84.7379 12.2849C84.4905 12.5712 84.3649 12.9087 84.3649 13.2949V16.7899H83.0213V12.5824C83.0213 12.0649 83.0046 11.5037 82.9726 10.8962H84.1533L84.2162 11.8174H84.2533C84.4097 11.5312 84.6431 11.2949 84.9495 11.1062C85.3136 10.8862 85.7213 10.7749 86.1674 10.7749C86.7315 10.7749 87.2008 10.9524 87.5738 11.3087C88.0379 11.7449 88.27 12.3962 88.27 13.2612V16.7912Z" fill="white"/>
<path d="M91.9751 16.7911H90.6328V8.19482H91.9751V16.7911Z" fill="white"/>
<path d="M99.8856 13.7961C99.8856 14.7023 99.6202 15.4448 99.0894 16.0273C98.533 16.6261 97.7946 16.9248 96.8753 16.9248C95.9869 16.9248 95.2805 16.6386 94.7548 16.0636C94.2292 15.4898 93.9664 14.7661 93.9664 13.8936C93.9664 12.9811 94.2369 12.2323 94.7805 11.6511C95.3241 11.0698 96.0548 10.7786 96.9741 10.7786C97.8625 10.7786 98.5741 11.0648 99.1151 11.6386C99.6279 12.1961 99.8856 12.9161 99.8856 13.7961ZM98.4907 13.8386C98.4907 13.2948 98.3702 12.8286 98.1305 12.4398C97.8497 11.9698 97.4471 11.7348 96.9266 11.7348C96.3856 11.7348 95.9753 11.9698 95.6946 12.4398C95.4535 12.8286 95.3343 13.3023 95.3343 13.8623C95.3343 14.4061 95.4548 14.8723 95.6946 15.2611C95.9856 15.7311 96.3907 15.9661 96.9138 15.9661C97.4266 15.9661 97.8279 15.7273 98.1176 15.2486C98.3676 14.8523 98.4907 14.3823 98.4907 13.8386Z" fill="white"/>
<path d="M106.388 16.7911H105.181L105.081 16.1123H105.044C104.631 16.6536 104.043 16.9248 103.279 16.9248C102.708 16.9248 102.247 16.7461 101.899 16.3911C101.584 16.0686 101.426 15.6673 101.426 15.1911C101.426 14.4711 101.734 13.9223 102.353 13.5423C102.971 13.1623 103.84 12.9761 104.96 12.9848V12.8748C104.96 12.0986 104.542 11.7111 103.705 11.7111C103.108 11.7111 102.583 11.8573 102.129 12.1473L101.856 11.2873C102.417 10.9486 103.111 10.7786 103.929 10.7786C105.508 10.7786 106.301 11.5911 106.301 13.2161V15.3861C106.301 15.9748 106.33 16.4436 106.388 16.7911ZM104.993 14.7661V13.8573C103.511 13.8323 102.77 14.2286 102.77 15.0448C102.77 15.3523 102.855 15.5823 103.028 15.7361C103.201 15.8898 103.421 15.9661 103.684 15.9661C103.979 15.9661 104.255 15.8748 104.506 15.6936C104.758 15.5111 104.913 15.2798 104.971 14.9961C104.985 14.9323 104.993 14.8548 104.993 14.7661Z" fill="white"/>
<path d="M114.023 16.7911H112.831L112.768 15.8448H112.731C112.35 16.5648 111.701 16.9248 110.79 16.9248C110.061 16.9248 109.455 16.6461 108.974 16.0886C108.493 15.5311 108.254 14.8073 108.254 13.9186C108.254 12.9648 108.514 12.1923 109.037 11.6023C109.543 11.0523 110.164 10.7773 110.902 10.7773C111.714 10.7773 112.282 11.0436 112.605 11.5773H112.631V8.19482H113.975V15.2036C113.975 15.7773 113.991 16.3061 114.023 16.7911ZM112.631 14.3061V13.3236C112.631 13.1536 112.618 13.0161 112.593 12.9111C112.518 12.5961 112.355 12.3311 112.107 12.1173C111.857 11.9036 111.556 11.7961 111.209 11.7961C110.707 11.7961 110.315 11.9898 110.027 12.3786C109.741 12.7673 109.596 13.2636 109.596 13.8698C109.596 14.4523 109.733 14.9248 110.009 15.2886C110.3 15.6761 110.692 15.8698 111.183 15.8698C111.624 15.8698 111.977 15.7086 112.245 15.3848C112.504 15.0861 112.631 14.7261 112.631 14.3061Z" fill="white"/>
<path d="M125.515 13.7961C125.515 14.7023 125.249 15.4448 124.718 16.0273C124.162 16.6261 123.426 16.9248 122.504 16.9248C121.618 16.9248 120.912 16.6386 120.384 16.0636C119.858 15.4898 119.595 14.7661 119.595 13.8936C119.595 12.9811 119.866 12.2323 120.409 11.6511C120.953 11.0698 121.684 10.7786 122.606 10.7786C123.491 10.7786 124.206 11.0648 124.744 11.6386C125.257 12.1961 125.515 12.9161 125.515 13.7961ZM124.122 13.8386C124.122 13.2948 124.002 12.8286 123.762 12.4398C123.479 11.9698 123.079 11.7348 122.556 11.7348C122.017 11.7348 121.607 11.9698 121.324 12.4398C121.083 12.8286 120.963 13.3023 120.963 13.8623C120.963 14.4061 121.084 14.8723 121.324 15.2611C121.615 15.7311 122.02 15.9661 122.543 15.9661C123.056 15.9661 123.459 15.7273 123.749 15.2486C123.997 14.8523 124.122 14.3823 124.122 13.8386Z" fill="white"/>
<path d="M132.739 16.7912H131.396V13.4162C131.396 12.3762 130.991 11.8562 130.177 11.8562C129.778 11.8562 129.457 11.9987 129.208 12.2849C128.959 12.5712 128.835 12.9087 128.835 13.2949V16.7899H127.49V12.5824C127.49 12.0649 127.475 11.5037 127.443 10.8962H128.622L128.685 11.8174H128.722C128.88 11.5312 129.113 11.2949 129.418 11.1062C129.784 10.8862 130.19 10.7749 130.637 10.7749C131.2 10.7749 131.67 10.9524 132.043 11.3087C132.508 11.7449 132.739 12.3962 132.739 13.2612V16.7912Z" fill="white"/>
<path d="M141.781 11.8799H140.302V14.7424C140.302 15.4699 140.565 15.8337 141.085 15.8337C141.326 15.8337 141.526 15.8137 141.684 15.7724L141.719 16.7662C141.453 16.8637 141.105 16.9124 140.675 16.9124C140.144 16.9124 139.731 16.7549 139.433 16.4399C139.133 16.1249 138.984 15.5949 138.984 14.8512V11.8799H138.101V10.8987H138.984V9.81865L140.301 9.43115V10.8974H141.78V11.8799H141.781Z" fill="white"/>
<path d="M148.894 16.7911H147.549V13.4411C147.549 12.3848 147.144 11.8561 146.333 11.8561C145.71 11.8561 145.284 12.1623 145.051 12.7748C145.011 12.9036 144.988 13.0611 144.988 13.2461V16.7898H143.646V8.19482H144.988V11.7461H145.014C145.437 11.0998 146.043 10.7773 146.829 10.7773C147.385 10.7773 147.846 10.9548 148.211 11.3111C148.666 11.7548 148.894 12.4148 148.894 13.2873V16.7911Z" fill="white"/>
<path d="M156.232 13.5662C156.232 13.8012 156.214 13.9987 156.182 14.16H152.152C152.17 14.7425 152.362 15.1862 152.736 15.4937C153.077 15.7687 153.516 15.9062 154.055 15.9062C154.651 15.9062 155.194 15.8137 155.684 15.6275L155.894 16.5375C155.321 16.78 154.647 16.9012 153.866 16.9012C152.93 16.9012 152.193 16.6325 151.66 16.095C151.124 15.5575 150.859 14.8362 150.859 13.9312C150.859 13.0425 151.106 12.3025 151.605 11.7125C152.125 11.0825 152.829 10.7675 153.718 10.7675C154.587 10.7675 155.247 11.0825 155.693 11.7125C156.053 12.2125 156.232 12.8312 156.232 13.5662ZM154.95 13.2275C154.96 12.8387 154.871 12.5037 154.689 12.2212C154.456 11.8575 154.101 11.675 153.62 11.675C153.182 11.675 152.824 11.8525 152.551 12.2087C152.328 12.4925 152.196 12.8312 152.152 13.2275H154.95Z" fill="white"/>
</svg>
