<svg width="48" height="49" viewBox="0 0 48 49" fill="none" xmlns="http://www.w3.org/2000/svg">
<rect y="0.5" width="48" height="48" rx="24" fill="#3D3D3D"/>
<path d="M27.9023 34.3613C28.0898 34.5605 28.3593 34.6777 28.664 34.6777C29.2734 34.6777 29.7304 34.2207 29.7304 33.6113C29.7304 33.3066 29.625 33.0254 29.4257 32.8496L20.2617 23.873V25.127L29.4257 16.1504C29.625 15.9629 29.7304 15.6816 29.7304 15.3886C29.7304 14.7793 29.2734 14.3222 28.664 14.3222C28.3593 14.3222 28.0898 14.4394 27.9023 14.6386L18.6211 23.7089C18.3984 23.9082 18.2695 24.2011 18.2695 24.4941C18.2695 24.7988 18.3984 25.0801 18.6211 25.291L27.9023 34.3613Z" fill="white"/>
</svg>
