<svg width="102" height="88" viewBox="0 0 102 88" fill="none" xmlns="http://www.w3.org/2000/svg">
<path d="M101.911 29.6736C101.737 29.9501 101.556 29.8395 101.299 29.9293C100.575 30.1781 100.47 30.662 100.289 31.3256C100.477 31.6573 100.248 32.2587 100.178 32.6319C100.101 33.0467 99.997 33.4752 99.8787 33.8899C99.6281 34.7678 99.0365 35.5143 98.5353 36.2608C98.0551 36.9796 97.4287 37.8298 97.206 38.6731C97.018 39.3712 97.0389 40.1661 96.9484 40.8918C96.7466 42.6199 95.8209 44.258 95.6608 45.986C95.5703 46.9606 95.7513 48.0527 95.4937 48.9928C95.3685 49.4421 95.1945 49.8015 94.9091 50.1817C94.568 50.624 94.0599 50.707 93.698 51.101C93.2595 51.571 93.5101 52.4696 93.0298 52.8497C92.8767 52.9741 92.6053 52.988 92.4313 53.1055C92.306 53.1884 92.1598 53.3543 92.0345 53.458C91.2341 54.1077 90.0648 54.1215 89.153 54.633C89.3827 55.5316 89.2713 55.6906 88.464 55.8979C88.3596 55.4279 88.2969 55.4003 87.9141 55.3381C87.58 55.2897 87.225 55.2275 86.9536 55.4348C86.6125 55.6975 86.536 56.2643 86.1323 56.4371C85.8957 56.5408 85.659 56.52 85.4154 56.6237C85.1022 56.7619 84.7124 56.9278 84.4201 57.1145C83.919 57.4255 83.5361 57.9923 83.3343 58.5383C82.9654 59.5752 82.868 61.2133 82.1093 62.0358C81.8448 62.3192 81.5107 62.5059 81.1418 62.6303C81.4133 63.1625 81.2532 63.9159 81.1766 64.4896C81.0235 65.7131 80.7312 67.0402 80.0073 68.0563C79.6315 68.5885 79.1512 69.0516 78.6571 69.4663C78.4274 69.6599 77.613 70.0055 77.62 70.2543C77.265 70.5861 76.569 70.5308 76.1027 70.6828C75.5389 70.8695 74.989 71.0976 74.3974 71.139C73.3395 71.2151 72.1493 70.6483 71.3976 69.9571C70.3744 69.017 69.9359 67.5724 69.0033 66.6047C68.6413 66.2315 67.9941 66.3835 67.4999 66.2107C66.7691 65.9481 66.1426 65.3467 66.2262 64.5311C66.3166 63.6947 66.8387 63.2662 67.6252 63.2938C68.0845 63.3146 69.3234 63.4459 69.3234 63.4459C69.7132 62.9413 69.9847 63.1556 69.8663 62.4713C69.7759 61.9322 69.6575 61.4276 69.7619 60.8677C69.8524 60.37 70.1865 59.9553 70.3536 59.4922C70.5276 59.0153 70.3396 58.5107 70.4719 58.0061C70.6737 57.2527 71.6412 56.8449 71.2166 55.974C70.9173 55.3726 70.2213 55.0132 69.7411 54.5777C69.059 53.9695 68.4534 53.1884 68.1959 52.3037C68.4047 52.3106 68.5926 52.2691 68.7805 52.1931C68.4813 51.882 68.4673 51.3982 68.2794 51.0318C68.001 50.472 67.5277 49.9743 67.1867 49.4421C66.7691 48.8062 66.4628 48.2739 66.1705 47.5758C65.9478 47.0367 65.5998 46.1658 65.0569 45.8824C64.514 45.6059 63.9641 45.7372 64.0894 44.8663C63.3168 45.0183 63.4351 44.1958 62.8574 43.9262C62.0779 43.5668 61.2984 44.106 60.7137 44.5621C60.0664 45.0598 59.5165 45.7303 58.911 46.2971C58.5212 46.6634 58.2498 46.8777 57.7347 47.0781C57.0944 47.327 56.7394 47.4168 56.4193 48.0458C55.9529 48.9651 55.2639 49.4213 54.4286 49.9605C53.5029 50.5618 53.0714 51.6332 52.1179 52.1862C51.6446 52.4626 51.2618 52.8705 50.8372 53.2091C50.3709 53.5824 49.9393 53.7414 49.3686 53.9211C48.6099 54.163 47.8513 54.4118 47.1065 54.6607C46.8351 54.7505 46.668 54.7436 46.5567 54.6814C45.4222 56.2297 43.7308 58.5038 41.6915 61.1442C41.8168 61.2271 41.9073 61.3101 41.9351 61.3861C42.0465 61.7455 41.6915 62.499 41.1625 62.499C41.0094 62.499 40.8632 62.4506 40.731 62.3814C33.562 71.5607 22.8642 84.1821 16.4678 86.6151C6.19457 90.5274 0 84.9079 0 84.9079C0 84.9079 6.03448 89.4145 15.4307 86.0484C18.1382 85.0807 21.9594 81.7767 26.0241 77.5742C26.0172 77.5673 25.4604 76.9521 25.7666 76.5028C26.0729 76.0466 27.4858 74.6504 27.6876 74.7333C27.792 74.7748 27.9869 75.0582 28.147 75.3277C32.2674 70.8626 36.4783 65.7407 39.9306 61.3723C39.9306 61.3723 39.9306 61.1096 40.042 60.7779C40.0768 60.6811 40.2438 60.6603 40.4665 60.6949C42.6938 57.8679 44.5591 55.4003 45.8328 53.6999C45.5823 53.5755 45.2691 53.5064 45.1368 53.2714C44.9419 52.9258 45.1298 52.3037 45.4918 52.1654C45.5057 51.5502 45.8189 51.3774 46.1391 50.9627C46.4244 50.5964 46.2713 50.0642 46.6124 49.7255C46.7933 49.5388 46.9465 49.5872 47.0648 49.3522C47.1901 49.1172 47.1135 48.7923 47.2736 48.5366C47.5937 48.0251 48.4568 48.0044 48.9927 47.7624C49.1041 47.7141 49.2085 47.6588 49.3129 47.5965C47.8234 47.562 46.494 46.1588 46.3896 44.7073C46.3061 43.6359 46.5567 42.6752 47.4754 42.0185C49.0902 40.8642 51.8464 41.4655 52.6468 43.3318C52.8069 43.712 52.8974 44.1405 52.9183 44.5691C53.0853 44.2649 53.1271 44.0092 53.2524 43.6359C53.4055 43.1797 53.7257 42.9862 54.025 42.6337C54.7279 41.7835 55.5423 40.9195 56.1617 40.014C56.4958 39.5233 56.6768 38.9288 57.1153 38.5072C57.7139 37.9335 58.5491 37.5049 59.2521 37.0833C60.0038 36.634 60.6789 36.1018 61.3471 35.535C62.1127 34.8922 62.5929 34.7608 63.5952 34.7125C64.2007 35.1134 64.7854 34.9336 65.4745 35.0166C65.9338 35.0719 66.2749 35.2931 66.6786 35.5488C67.2215 35.8944 67.5625 36.4197 68.0985 36.7308C69.0659 37.2976 69.8246 38.0579 70.7503 38.6869C70.6876 38.2929 70.6389 38.0095 70.5136 37.6224C70.4092 37.3045 70.2422 37.0073 70.1865 36.6686C70.0891 36.0396 70.3396 35.6801 70.5136 35.1203C70.7294 34.4636 70.5136 33.7033 70.5902 33.019C70.6876 32.1826 71.0009 31.3325 71.321 30.5583C71.7804 29.4386 72.2746 28.1114 72.9775 27.1161C73.2142 26.7843 73.4926 26.4871 73.9172 26.4595C74.4949 26.4249 74.467 26.7359 74.8707 26.259C75.4832 25.5263 76.3532 25.3121 77.2093 25.7959C77.2789 25.5471 77.4112 25.4019 77.5782 25.3259C76.8544 22.9758 75.6294 18.6419 77.0005 18.324C77.3903 19.3055 77.5156 20.5151 77.8149 21.5588C78.1072 22.5887 78.7267 23.9918 78.7197 25.1185C78.7684 25.1047 78.8102 25.0909 78.8519 25.0701C79.4157 24.8006 79.9099 24.8075 80.237 24.2407C80.4737 23.8329 80.5433 23.2868 80.418 22.8514C80.0978 21.7178 79.2626 20.7639 78.9563 19.5889C78.6083 18.2825 78.7197 16.9208 78.4413 15.6213C78.1768 14.3426 77.9402 13.0639 77.6896 11.7851C77.4738 10.6585 77.2093 9.53181 76.9518 8.40515C76.7221 7.4029 76.743 6.49051 76.7291 5.48826C76.7221 4.81779 76.5342 3.53214 75.8591 3.18654C75.1909 2.84093 74.3765 2.8755 73.6179 2.7027C73.1098 2.5921 72.6087 2.44695 72.3233 1.99075C72.6295 1.91472 73.0263 1.97002 73.3464 1.95619C72.6504 1.61059 71.85 1.5069 71.0913 1.2719C70.1865 0.995407 69.226 0.746582 68.3281 0.55304C68.3629 0.0622864 69.2399 0.338768 69.5601 0.338768C70.7016 0.34568 71.843 0.387154 72.9984 0.414803C75.0517 0.463188 77.1119 0.449364 79.1651 0.601433C79.8542 0.649818 80.5293 0.781136 81.2114 0.788048C81.2254 0.559952 81.107 0.324944 81.0026 0.117577C81.2184 0.00698853 81.469 0.0622864 81.6708 -0.0828629C81.2532 -0.414642 80.2927 -0.946877 81.3715 -0.995262C82.1928 -1.02982 83.0141 -0.86393 83.8354 -0.86393C84.7472 -0.86393 85.652 -0.912308 86.5638 -0.877747C88.457 -0.808624 90.3014 -0.525246 92.1737 -0.283318C92.5774 -0.228027 94.3523 -0.317879 94.5402 0.172874C94.6585 0.483917 94.1156 0.635986 93.879 0.705109C93.4614 0.822617 92.6261 0.663643 92.2851 0.967773C91.8605 1.34103 92.8628 2.15664 93.0855 2.47459C93.4614 3.03447 93.872 3.57362 94.0112 4.251C94.1295 4.84544 94.2409 5.14265 94.742 5.57812C95.2919 6.05505 95.807 6.47668 95.8974 7.21627C95.974 7.81762 96.0645 8.40514 96.1898 9.02032C96.496 10.4719 96.5378 11.6884 96.503 13.1468C96.4751 14.2113 97.0041 14.7504 97.4426 15.6835C97.9229 16.7134 98.3405 17.7433 98.953 18.7041C99.5655 19.6718 100.025 20.8192 100.094 21.9597C100.129 22.5127 99.9622 22.8997 99.7325 23.3974C99.5933 23.6946 99.3427 24.1094 99.5376 24.4204C99.816 24.8766 100.665 24.9872 101.104 25.16C101.514 25.3259 101.473 25.3121 101.431 25.6784C101.375 26.1346 100.971 26.7152 101.152 27.1714C101.25 27.4133 101.521 27.5377 101.598 27.8142C101.674 28.0976 101.64 28.3534 101.758 28.6437C101.883 29.0584 102.134 29.328 101.911 29.6736Z" fill="white"/>
</svg>
