<svg width="139" height="232" viewBox="0 0 139 232" fill="none" xmlns="http://www.w3.org/2000/svg">
<path d="M109.464 11.6946C107.022 14.5171 102.848 20.2959 97.7972 27.6142C97.2976 27.4803 96.8758 27.4915 96.7093 27.7592C96.5427 28.027 96.7093 28.384 97.0201 28.741C89.7711 39.2834 80.868 52.7487 72.7198 65.2322C72.0426 64.8306 71.4098 64.7413 71.1656 65.288C70.9436 65.7677 71.1878 66.3701 71.6208 66.9168C69.2007 70.6317 66.8695 74.2239 64.6715 77.6154C64.2274 77.7158 63.7834 77.8273 63.3504 77.95C60.4975 78.7644 56.5677 80.2593 53.5926 80.2147C53.2262 77.9054 53.3594 76.0089 53.4483 73.7108C55.0468 73.8446 55.5686 73.298 54.9469 71.9035C54.0921 69.9847 52.6046 69.4715 55.8017 68.8467C56.5011 68.7129 61.4744 68.367 59.8647 66.2474C59.5317 65.8123 56.6565 65.6338 55.9904 65.4888C54.8914 65.2545 53.7813 65.2768 52.7045 65.0425C52.8488 61.4057 49.6184 58.4828 46.4435 57.3896C43.6016 56.4078 37.829 56.7202 35.5089 58.7394C34.0435 60.0224 33.4663 61.8854 32.8113 63.57C32.1119 65.3661 31.9787 67.2068 31.5569 68.9583C31.1794 70.4978 31.1461 70.2189 31.9232 71.6469C32.3118 72.3609 32.7225 73.1083 33.111 73.8335C34.4987 76.4998 36.1416 80.2259 33.8881 82.7471C32.1785 84.6659 29.3922 85.3576 27.9712 87.5665C25.9619 90.679 21.9877 91.2703 19.934 94.3717C19.1236 95.5988 18.613 97.0714 18.0135 98.399C17.403 99.7377 16.5482 100.909 15.871 102.27C15.105 103.81 14.2725 105.427 13.7285 107.101C13.1846 108.808 13.3733 110.604 12.8071 112.232C12.1521 114.107 11.3085 115.892 10.9532 117.888C10.6646 119.517 11.2197 121.068 11.3751 122.63C10.3871 122.764 10.1984 124.069 11.1864 124.437C10.5758 125.396 9.47678 127.728 10.931 128.342C9.89862 132.347 12.9847 136.106 13.0402 140C13.0624 141.472 12.1632 142.644 12.3187 144.116C12.4852 145.689 13.3511 147.173 13.4732 148.768C13.5509 149.683 13.4177 150.609 13.4621 151.524C13.5287 152.784 12.6739 155.172 13.018 156.22C13.1734 156.7 13.8728 157.247 14.6721 157.671L0.0297404 181.377C-0.314394 182.761 2.42758 184.824 3.11585 183.787C3.41558 183.33 9.86532 172.363 17.4474 159.456C17.5806 159.902 17.8248 160.203 18.2355 160.203C19.268 160.203 19.9562 159.4 19.9562 159.4C19.9562 159.4 20.3004 162.747 20.5335 164.13C20.7666 165.513 20.5335 167.823 20.5335 167.823C20.5335 167.823 20.1671 169.552 20.6334 169.663C21.0996 169.775 22.132 170.935 22.3652 170.467C22.4762 170.255 23.6973 168.325 24.9961 166.261C24.5299 169.541 23.5641 172.776 23.2422 176.089C23.1422 177.071 22.2875 179.603 22.8092 180.462C23.3754 181.4 25.7177 180.976 26.2505 181.846C26.8389 182.805 25.3403 184.824 24.9517 185.75C24.1413 187.658 23.1755 189.476 22.5539 191.473C20.6001 197.732 22.565 204.805 23.5308 211.097C24.3967 216.764 20.7888 222.654 17.4807 227.117C16.2485 228.779 14.8941 230.787 17.6139 231.59C19.3679 232.115 22.565 232.059 24.43 231.847C25.9841 231.668 29.4921 231.646 30.3469 230.095C31.246 228.478 29.4366 225.555 29.6142 223.848C29.8584 221.583 30.7687 219.464 30.7909 217.143C30.802 215.916 30.4246 215.314 30.4912 214.031C30.6022 211.822 31.1017 209.836 31.7456 207.705C32.7003 204.604 34.3877 201.782 35.3757 198.691C36.1971 196.125 36.0306 193.738 36.1194 191.072C36.2193 187.803 37.1629 185.996 38.7837 183.296C39.583 181.968 39.3277 181.823 40.8485 181.578C41.7255 181.433 42.6247 181.433 43.4906 181.266C43.4351 178.845 44.2898 176.39 44.6895 174.037C45.2778 175.688 45.0225 177.83 45.2889 179.57C45.5665 181.455 45.9217 181.21 47.6424 181.31C46.2325 184.311 45.2667 187.435 45.2889 190.804C45.3111 194.742 47.6313 198.067 48.3084 201.904C48.7303 204.269 48.4417 206.445 48.5416 208.821C48.6526 211.275 49.0855 214.064 48.586 216.485C48.1308 218.705 44.7894 223.558 47.5314 225.187C48.8635 225.979 50.34 225.856 51.6277 226.972C52.8155 228.009 53.2928 229.225 54.9802 229.582C57.1782 230.051 59.2763 228.712 61.4188 228.478C63.0396 228.299 65.1266 228.467 65.06 226.191C64.9823 223.48 62.8842 222.465 60.9748 221.014C58.5215 219.151 56.5233 216.63 56.3901 213.506C56.1791 208.888 55.3465 204.035 56.3012 199.45C57.0561 195.791 58.8212 192.489 59.4096 188.751C59.7759 186.431 60.1644 183.965 60.1089 181.623C61.5188 181.4 63.517 180.764 64.5383 180.552C64.4272 176.703 65.2043 173.111 64.8269 169.217C64.5161 166.004 63.9499 162.814 63.9388 159.578C63.9277 153.922 64.6271 147.608 63.0174 142.13C62.1848 139.297 60.6418 135.537 61.4522 132.492C61.8407 131.041 62.6955 130.249 62.1626 128.542C61.6853 127.003 61.43 126.356 61.5965 124.604C61.7963 122.585 62.1293 120.577 62.0183 118.524C61.9295 116.918 61.7075 115.066 61.0081 113.627C60.2865 112.132 59.6649 111.195 59.6649 109.432C59.676 106.331 61.0414 103.453 61.5632 100.441C62.0072 97.8635 61.6187 95.4315 61.4411 92.9548C65.3153 91.1587 69.9223 90.6679 73.9298 89.1506C77.3822 87.8454 80.2796 85.815 83.6322 84.3424C87.895 82.4571 87.5064 77.2918 90.6259 74.5251C91.0921 74.1124 91.6583 73.8893 92.2355 73.6996C92.4908 78.4855 92.835 85.0787 92.9904 88.6375C92.946 88.6598 92.8905 88.6598 92.8461 88.6933C91.6139 89.4072 90.2706 92.4417 90.1707 93.825C90.0597 95.2753 90.1041 96.7479 90.1707 98.2093C89.5824 99.2914 89.0273 101.088 88.9607 101.333C88.6055 102.571 88.2058 103.81 87.7396 104.948C88.1947 105.483 89.3825 104.356 90.315 103.475C90.315 103.642 90.315 103.81 90.3039 103.977C90.2817 104.39 90.2595 104.803 90.2262 105.204C90.0042 105.818 89.7822 106.442 89.5824 107.023C89.4158 107.502 88.8608 109.075 89.2049 109.555C89.3492 109.756 89.6379 109.834 89.982 109.867C89.982 109.934 89.982 110.001 89.982 110.068C89.982 111.597 90.3039 113.114 90.204 114.631C90.1263 115.791 89.8377 115.68 88.994 116.405C88.117 117.152 86.6184 118.736 86.685 119.952C87.5397 119.897 88.5277 118.602 89.549 118.959C90.3816 119.261 89.7378 120.019 89.6601 120.744C89.6601 120.744 85.6415 126.624 86.6406 130.06C87.4287 129.212 88.4389 128.308 89.438 127.773C90.0375 129.123 91.1143 130.629 92.18 131.644C92.1467 130.751 92.5685 129.937 92.7018 129.044C92.8794 127.884 93.6232 126.233 93.8674 125.084C94.156 123.678 94.2004 122.485 94.7222 121.202C95.1218 122.284 95.7768 123.388 96.1875 124.493C96.8536 122.775 97.5974 121.246 97.4086 119.305C97.2532 117.766 96.4428 116.36 96.0876 114.854C94.6889 108.897 97.1644 102.248 96.7204 96.1789C96.6205 94.829 95.366 89.2064 93.6565 88.5928L92.4242 73.6438C93.3123 73.3649 94.2226 73.1307 94.9109 72.3609C96.1986 70.8995 95.6325 69.438 95.6547 67.7088C95.6769 65.5557 95.4548 63.4696 94.4779 62.2424L138.982 7.5669C139.659 -4.50388 120.788 -1.40252 109.464 11.6946ZM20.256 135.593C19.8896 131.8 20.6889 128.442 20.8776 124.593C21.9211 124.638 21.8101 123.634 21.8878 122.864C22.021 121.682 22.2431 121.425 22.6871 120.399C23.1755 119.261 23.1755 117.922 23.5641 116.717C23.997 115.345 25.2292 114.118 25.3292 112.69C26.5503 113.27 26.4837 114.832 26.9277 115.981C27.6382 117.833 28.4819 119.093 28.4486 121.202C28.4153 123.277 27.1275 125.162 26.4948 127.193C25.7843 129.491 26.6613 132.246 28.06 134.254C27.616 135.359 27.2941 136.486 27.0387 137.623L21.6991 146.269C19.4789 143.279 20.589 139.007 20.256 135.593ZM22.2319 162.256L20.9664 157.414L22.2319 155.172L21.2884 154.101C22.5983 152.829 23.6196 152.45 23.8083 150.308C23.8416 149.928 23.9526 149.025 23.8971 148.411C24.6964 147.05 25.4957 145.689 26.2839 144.35C26.195 147.976 26.4171 151.635 26.2394 155.172C25.6178 155.183 25.096 155.216 25.096 155.216L23.2643 158.675L22.2319 162.256ZM93.6676 61.5173C92.835 61.0264 91.6694 60.9372 90.0264 61.4726C89.0495 60.4909 86.4852 66.1693 86.2964 67.1287C85.9412 68.9137 85.7414 69.9289 83.9985 70.866C82.6886 71.58 81.4897 72.2828 80.2574 73.0749C79.0585 71.8477 76.5164 75.4957 75.9391 76.3547C74.8623 75.2726 73.8521 75.9866 73.2859 77.2137C71.3099 76.9906 69.3339 76.9683 67.369 77.1803C69.2451 74.2128 71.1656 71.1895 73.1083 68.1662C73.8854 68.6125 74.6403 68.7798 74.8734 68.3113C75.0843 67.8873 74.7402 67.1622 74.174 66.4928C82.5998 53.3176 91.2697 40.0308 98.3411 29.7227C99.096 30.102 99.8842 30.2693 100.184 29.8677C100.484 29.4661 99.9841 28.8525 99.2847 28.3505C104.913 20.1843 109.442 14.082 111.884 11.7169C122.63 1.25261 136.995 -1.938 138.882 6.99795L93.6676 61.5173Z" fill="white"/>
</svg>
