<svg width="81" height="179" viewBox="0 0 81 179" fill="none" xmlns="http://www.w3.org/2000/svg">
<path d="M0.368635 78.7331C0.739481 80.1627 0.656048 81.0825 2.15798 81.7423C3.56719 82.3621 5.03204 81.9122 5.58831 83.5318C6.08895 85.0014 6.22803 86.6009 6.88628 88.0905C8.18424 91.0097 10.261 93.649 12.3933 96.0283C12.0967 98.8075 12.6715 101.337 13.9973 103.936C14.4516 104.836 15.2211 107.815 15.8515 108.375C16.3243 108.795 17.0567 109.005 17.8633 109.055C18.5123 111.704 18.5401 113.753 19.3282 116.293C19.6805 117.432 20.3573 118.192 20.9877 119.122C21.9241 120.501 21.5162 120.701 21.4605 122.141C21.4142 123.431 22.4062 124.53 22.7956 125.72C23.2221 127.05 23.3704 128.749 23.1294 130.169C22.6473 133.078 21.3956 135.667 21.099 138.726C20.8208 141.646 21.1175 144.605 21.238 147.484C21.2844 148.624 21.4791 149.743 21.5162 150.863C21.5718 152.343 21.0897 153.822 21.6645 155.262C22.1744 156.531 22.8327 156.921 22.7122 158.451C22.5267 160.7 21.4605 163.32 21.887 165.559C22.332 167.878 23.4724 168.098 25.373 168.288C27.802 168.538 29.8139 168.558 32.2244 167.938C33.6985 167.558 35.2839 167.778 36.8229 167.688C36.6653 168.238 36.5633 168.728 36.656 168.908C37.2679 170.098 36.2759 170.518 36.1739 171.777C36.0997 172.727 36.6282 173.367 37.1288 174.267C37.6944 175.276 38.0188 176.626 38.9182 177.236C39.8916 177.896 42.1816 178.305 43.3312 178.245C44.8981 178.175 46.6781 176.906 48.2542 176.486C51.1005 175.726 54.6699 176.326 57.2565 174.596C58.573 173.707 59.4445 172.517 59.12 170.738C58.5452 167.518 55.3003 168.148 53.1123 166.979C51.4157 166.069 51.2395 163.789 51.4806 162.04C51.6475 160.79 51.8793 159.411 52.6302 158.401C52.9825 157.931 53.7149 157.591 53.9096 156.971C54.2527 155.902 53.4646 155.952 53.4183 155.142C53.3812 154.472 54.3732 152.603 54.5493 151.833C55.152 149.124 55.393 146.314 55.7175 143.555C55.9957 141.226 55.2632 139.366 56.3201 137.207C57.5996 134.598 56.0884 132.648 56.0698 129.929C56.0605 129.089 56.0791 128.249 56.0884 127.42C56.5148 127.01 56.8486 126.4 57.0989 125.51C57.6923 123.381 57.4976 120.452 57.4049 118.362C57.2843 115.673 56.2831 113.853 54.299 113.124C53.5295 111.174 52.7507 109.225 52.0276 107.245C51.4899 105.756 50.3959 103.796 50.3959 102.177C50.3959 100.887 50.6462 101.017 51.6011 100.817C52.7137 100.577 53.3719 100.567 54.2527 99.5973C56.2923 97.3379 57.4605 93.9289 56.7281 90.8098C55.9678 87.6106 53.3163 86.5709 51.3601 84.3116C50.127 82.892 48.7734 81.5823 47.4755 80.2327C47.9946 78.953 47.8648 77.0636 47.4384 75.594C47.2159 74.8042 46.6874 72.6648 45.9735 72.3249C45.8623 72.2749 45.7232 72.2449 45.5749 72.2349C44.6107 70.3954 43.5074 68.516 42.3392 66.8064C42.4412 66.7265 42.5339 66.6465 42.5895 66.5265C43.3312 64.9569 41.1247 65.3068 40.3088 65.4868C39.7804 63.3474 39.2241 61.108 38.6771 58.7887C38.9831 58.7887 39.2797 58.7787 39.5857 58.7487C40.5035 58.6487 41.7829 58.1788 41.7273 57.1291C41.6531 55.7695 40.1883 54.9097 39.0943 54.4099C38.6586 54.2099 38.093 54.04 37.5275 53.85C35.2931 44.0228 33.3276 33.8556 33.031 27.5174C32.4469 15.0108 38.5751 1.00474 51.9998 5.32353C65.4244 9.64233 81 45.9722 81 45.9722C81 45.9722 71.599 16.0805 54.6606 4.90365C52.5746 3.52404 50.5906 2.65427 48.7271 2.2044C48.2449 0.844777 47.6145 0.654833 45.8808 0.684825C44.2954 0.704819 43.6835 1.11471 43.1922 2.16442C38.7142 3.26411 35.2282 7.18302 32.9939 12.4915C32.1873 12.3516 31.8813 12.6415 31.39 14.1711C31.0006 15.3707 30.5277 16.7803 31.3251 17.6101C30.0456 22.8387 29.749 28.787 30.6112 34.5354C31.1304 37.9845 31.835 41.8234 32.6508 45.8023C32.5859 45.7223 32.521 45.6323 32.4469 45.5523C31.186 44.2527 29.5079 44.0228 27.9875 43.263C26.6524 42.5932 25.9756 41.7234 24.4459 42.0933C22.7956 42.5032 21.1639 42.3932 19.5136 42.9731C18.3825 43.373 17.168 43.7029 16.1853 44.4726C15.4436 45.0525 14.878 45.9722 14.3217 46.732C13.7006 47.5918 13.4317 48.6215 12.996 49.6012C12.6159 50.441 12.0781 51.1708 11.8185 52.0605C11.5219 53.0802 11.3364 54.15 11.1417 55.1997C11.049 55.6895 10.947 56.1394 11.1696 56.5493C11.2159 56.6393 11.2808 56.7192 11.355 56.7892C11.253 56.9892 11.1603 57.1891 11.0861 57.3991C10.7802 58.2588 10.9563 59.1586 10.7802 60.0083C10.9841 59.6484 11.3921 59.6484 11.7073 59.4585C11.2437 59.9783 11.1417 60.9281 11.1046 61.5879C11.2993 61.4879 11.5868 61.4379 11.9113 61.4279C11.8927 61.5779 11.8927 61.7378 11.8649 61.8878C11.698 62.8275 11.0212 63.9472 10.2981 64.5071C9.30605 65.2869 8.11933 65.0969 7.09023 65.6668C6.56177 65.9567 6.11676 66.4665 5.67174 66.8664C5.21746 67.2763 4.98568 67.6462 4.64264 68.1461C4.17909 68.8459 3.58574 69.8256 2.92749 70.2855C2.21361 70.7853 1.3143 70.5054 0.952723 71.5651C0.507707 72.8647 1.16596 73.8545 0.507711 75.2041C-0.233983 76.7537 -0.0578391 77.1036 0.368635 78.7331ZM35.5434 58.8287C36.3593 62.2577 37.1845 65.5968 37.9725 68.6959C35.5435 68.216 33.2627 68.256 33.4204 64.847C36.0719 63.5473 34.5978 61.4779 34.3846 59.4585C34.4773 59.2185 34.5607 58.9986 34.6071 58.8187C34.913 58.8486 35.2282 58.8487 35.5434 58.8287ZM43.5816 69.6856C44.11 70.5254 44.555 71.4052 44.963 72.3049C44.4067 72.4449 43.7762 72.7848 43.2663 73.1947C43.0438 72.6448 42.7935 72.115 42.4597 71.6051C42.1909 71.2152 41.9035 70.8553 41.5883 70.5454C41.3101 69.4657 41.0134 68.316 40.7168 67.1363C41.0969 67.1163 41.5141 67.0964 41.8664 67.0064C41.9127 67.0764 41.9684 67.1563 42.0147 67.2263C42.5525 68.0361 43.0624 68.8559 43.5816 69.6856ZM34.1528 146.824C34.3475 145.425 34.6534 144.055 34.9316 142.675C35.3024 140.826 36.1553 139.486 36.8043 137.767C37.305 136.437 36.9249 134.238 37.7685 133.198C40.8188 134.758 39.6042 139.366 39.8082 142.285C39.9565 144.335 39.9936 146.404 40.3366 148.424C40.6148 150.103 40.7631 151.713 40.4386 153.402C39.9009 156.202 38.3248 158.651 37.8242 161.42C37.8149 161.41 37.7963 161.4 37.7871 161.39C36.7858 160.29 35.9977 159.141 34.4773 158.931C34.3567 156.182 34.8018 153.412 34.4309 150.673C34.2269 149.234 33.9488 148.294 34.1528 146.824Z" fill="#F2F2F2"/>
</svg>
