<svg width="61" height="60" viewBox="0 0 61 60" fill="none" xmlns="http://www.w3.org/2000/svg">
<rect x="0.0769043" width="60" height="60" rx="30" fill="white"/>
<path d="M20.2156 33.9023C20.0164 34.0898 19.8992 34.3593 19.8992 34.664C19.8992 35.2734 20.3562 35.7304 20.9656 35.7304C21.2703 35.7304 21.5515 35.625 21.7273 35.4257L30.7039 26.2617H29.45L38.4265 35.4257C38.614 35.625 38.8953 35.7304 39.1883 35.7304C39.7976 35.7304 40.2547 35.2734 40.2547 34.664C40.2547 34.3593 40.1375 34.0898 39.9383 33.9023L30.868 24.6211C30.6687 24.3984 30.3758 24.2695 30.0828 24.2695C29.7781 24.2695 29.4968 24.3984 29.2859 24.6211L20.2156 33.9023Z" fill="#3D3D3D"/>
</svg>
