<svg width="95" height="98" viewBox="0 0 95 98" fill="none" xmlns="http://www.w3.org/2000/svg">
<path fill-rule="evenodd" clip-rule="evenodd" d="M47.5 60C34.1032 60 22.7574 51.2187 18.9044 39.0981L18.9088 39.1089C21.2798 39.147 23.7875 38.7192 26.0781 37.9992C28.0727 37.372 30.0014 36.4802 31.9275 35.5896L31.9275 35.5896C32.2562 35.4376 32.5848 35.2857 32.9137 35.1351C35.2533 34.0634 37.6188 33.0697 39.9836 32.0871L40.0273 32.0689C42.3977 31.084 44.7833 30.0928 47.2188 29.3818C49.5971 28.6875 52.0187 28.2849 54.4609 28.1724C59.4268 27.9439 64.2602 28.9839 69.0332 30.6035C71.6242 31.483 74.183 32.5078 76.6908 33.7007C76.7906 33.7482 76.8865 33.7973 76.9827 33.8464C77.0616 33.8867 77.1407 33.9272 77.2223 33.9669C77.2407 33.8903 77.2582 33.7987 77.2747 33.6947C75.4539 48.5202 62.8176 60 47.5 60ZM77.2747 33.6947C77.3293 33.2506 77.3741 32.8034 77.409 32.3534C77.3741 32.8732 77.3294 33.3513 77.2747 33.6947ZM77.409 32.3534C77.4572 31.6374 77.487 30.8424 77.4993 30.2111C77.4943 30.9315 77.464 31.6459 77.409 32.3534ZM77.4979 29.6372C75.6554 28.4524 73.7393 27.3202 71.8053 26.3707C67.2895 24.1535 62.4273 22.5503 57.5471 22.4677C52.4277 22.381 47.2615 23.7615 42.4621 25.9007C40.0385 26.981 37.6865 28.2762 35.3349 29.5713C33.0449 30.8323 30.7553 32.0932 28.4002 33.1552C25.7705 34.3412 23.0324 35.2611 20.2352 35.5453C19.5268 35.6174 18.7499 35.6897 18.0369 35.6797C17.6845 33.8406 17.5 31.9419 17.5 30C17.5 13.4314 30.9314 0 47.5 0C63.9474 0 77.3035 13.2358 77.4979 29.6372ZM18.049 35.7423L18.0369 35.6797L18.0351 35.6797L18.049 35.7423ZM18.2763 36.8101C18.2225 36.5729 18.1745 36.3412 18.131 36.1311C18.1017 35.9901 18.0745 35.8589 18.049 35.7423C18.1184 36.1006 18.1942 36.4565 18.2763 36.8101ZM18.4537 37.533C18.3916 37.2932 18.3325 37.0522 18.2763 36.8101C18.2918 36.8783 18.3077 36.9469 18.3241 37.0156C18.3653 37.1877 18.4092 37.362 18.4537 37.533ZM18.6263 38.1713C18.7141 38.4823 18.8069 38.7913 18.9044 39.0981C18.8665 39.0026 18.8212 38.8473 18.762 38.6439L18.7619 38.6439L18.7382 38.5625C18.7035 38.4436 18.6657 38.3118 18.6263 38.1713ZM18.4537 37.533C18.5115 37.7553 18.5705 37.9721 18.6263 38.1713C18.5665 37.9595 18.5089 37.7467 18.4537 37.533ZM77.4979 29.6372C77.4993 29.758 77.5 29.8789 77.5 30C77.5 30.0704 77.4998 30.1408 77.4993 30.2111C77.5034 30.0002 77.5055 29.8076 77.5058 29.6423L77.4979 29.6372ZM45.7452 21.5568L45.7457 21.5567C45.7884 21.5483 45.8309 21.54 45.8731 21.532L45.8732 21.5318C45.9933 21.509 46.118 21.4892 46.2444 21.4691C46.5885 21.4143 46.9452 21.3575 47.2553 21.2337C47.814 21.0106 48.1532 20.2415 47.6342 19.7551L47.635 19.7542C44.2178 16.5603 39.743 14.523 35.1803 13.9459C33.8842 13.7824 32.577 13.7578 31.275 13.8544C30.6346 13.9019 30.2004 14.571 30.5362 15.1863C30.6656 15.4236 30.7921 15.6628 30.9187 15.9021L30.9187 15.9021C31.2636 16.5543 31.6087 17.2067 32.0133 17.8218C32.5694 18.6673 33.1952 19.4671 33.8819 20.2025C34.1995 20.5429 34.5305 20.8699 34.8733 21.1839C35.0508 21.3462 35.2313 21.5056 35.4147 21.6609C35.4414 21.6836 35.4682 21.7061 35.4951 21.7285L35.4951 21.7286L35.4952 21.7286C35.5326 21.7599 35.5701 21.7911 35.6069 21.8232L35.5675 21.8886C35.5361 21.9407 35.5093 21.9853 35.4997 22.0007C35.3508 22.2445 35.202 22.4882 35.0526 22.732C34.9031 22.9765 34.7534 23.2208 34.6038 23.4652C34.4543 23.7092 34.3048 23.9532 34.1555 24.1974C33.9293 24.5666 34.0477 25.0857 34.3758 25.3394C34.7368 25.6183 35.1627 25.5603 35.4997 25.2703L35.854 24.965L35.8608 24.9591L35.8676 24.9532C36.7192 24.2194 37.5705 23.4859 38.4217 22.7519C38.4598 22.7238 38.4967 22.6933 38.5313 22.6576C38.7124 22.5011 38.7879 22.2603 38.778 22.0201C38.7797 21.7916 38.7012 21.5642 38.5313 21.406C38.5079 21.382 38.4832 21.3597 38.4586 21.3392C38.3547 21.243 38.2504 21.1472 38.1461 21.0513L38.1461 21.0513C37.216 20.1964 36.2864 19.3419 35.5846 18.2671C35.202 17.6818 34.8686 17.0572 34.5985 16.408C34.5645 16.3259 34.5317 16.2439 34.4995 16.1607C35.8184 16.3734 37.0817 16.9945 38.2565 17.6115C39.654 18.3457 40.9952 19.19 42.2831 20.1134C42.6592 20.3835 43.0307 20.6601 43.3981 20.9425C43.4669 20.9954 43.5347 21.0508 43.6027 21.1062L43.6028 21.1063L43.6028 21.1063C43.8737 21.3272 44.1468 21.5499 44.4891 21.6281C44.9003 21.722 45.3341 21.6372 45.7452 21.5568Z" fill="white"/>
<path d="M11.9182 75V76.7L11.1182 77.6H5.5182V81.2H10.1182V83.8H5.5182V89H1.9182V75H11.9182ZM16.8454 78.4V89H13.4454V78.4H16.8454ZM16.8454 77.4H13.4454V74.6H16.8454V77.4ZM24.7765 86.1V85.7C24.7765 85.38 24.5765 85.18 24.1765 85.1L20.7765 84.5C20.1898 84.38 19.6898 84.0867 19.2765 83.62C18.8765 83.1533 18.6765 82.58 18.6765 81.9V81.1C18.6765 80.2867 18.9365 79.6333 19.4565 79.14C19.9765 78.6467 20.6832 78.4 21.5765 78.4H27.5765V79.9L26.7765 80.8H22.5765C22.2432 80.8 22.0765 80.9667 22.0765 81.3V81.6C22.0765 81.92 22.2765 82.12 22.6765 82.2L26.0765 82.8C26.6632 82.92 27.1565 83.2133 27.5565 83.68C27.9698 84.1467 28.1765 84.72 28.1765 85.4V86.3C28.1765 87.1133 27.9165 87.7667 27.3965 88.26C26.8765 88.7533 26.1698 89 25.2765 89H18.6765V86.6H24.2765C24.6098 86.6 24.7765 86.4333 24.7765 86.1ZM33.6099 78.4H37.1099C38.0033 78.4 38.7233 78.6667 39.2699 79.2C39.8299 79.72 40.1099 80.3867 40.1099 81.2V89H36.7099V81.4C36.7099 81.2533 36.6433 81.12 36.5099 81C36.3899 80.8667 36.2566 80.8 36.1099 80.8H33.6099V89H30.2099V75H33.6099V78.4ZM41.5402 77.6V75H52.9402V76.7L52.1402 77.6H49.0402V89H45.4402V77.6H41.5402ZM63.4713 81V86.4C63.4713 87.2133 63.1913 87.8867 62.6313 88.42C62.0847 88.94 61.3647 89.2 60.4713 89.2H56.1713C55.278 89.2 54.5513 88.94 53.9913 88.42C53.4447 87.8867 53.1713 87.2133 53.1713 86.4V81C53.1713 80.1867 53.4447 79.52 53.9913 79C54.5513 78.4667 55.278 78.2 56.1713 78.2H60.4713C61.3647 78.2 62.0847 78.4667 62.6313 79C63.1913 79.52 63.4713 80.1867 63.4713 81ZM57.1713 86.8H59.4713C59.618 86.8 59.7513 86.74 59.8713 86.62C60.0047 86.4867 60.0713 86.3467 60.0713 86.2V81.2C60.0713 81.0533 60.0047 80.92 59.8713 80.8C59.7513 80.6667 59.618 80.6 59.4713 80.6H57.1713C57.0247 80.6 56.8847 80.6667 56.7513 80.8C56.6313 80.92 56.5713 81.0533 56.5713 81.2V86.2C56.5713 86.3467 56.6313 86.4867 56.7513 86.62C56.8847 86.74 57.0247 86.8 57.1713 86.8ZM75.8063 81V86.4C75.8063 87.2133 75.5263 87.8867 74.9663 88.42C74.4197 88.94 73.6997 89.2 72.8063 89.2H68.5063C67.613 89.2 66.8863 88.94 66.3263 88.42C65.7797 87.8867 65.5063 87.2133 65.5063 86.4V81C65.5063 80.1867 65.7797 79.52 66.3263 79C66.8863 78.4667 67.613 78.2 68.5063 78.2H72.8063C73.6997 78.2 74.4197 78.4667 74.9663 79C75.5263 79.52 75.8063 80.1867 75.8063 81ZM69.5063 86.8H71.8063C71.953 86.8 72.0863 86.74 72.2063 86.62C72.3397 86.4867 72.4063 86.3467 72.4063 86.2V81.2C72.4063 81.0533 72.3397 80.92 72.2063 80.8C72.0863 80.6667 71.953 80.6 71.8063 80.6H69.5063C69.3597 80.6 69.2197 80.6667 69.0863 80.8C68.9663 80.92 68.9063 81.0533 68.9063 81.2V86.2C68.9063 86.3467 68.9663 86.4867 69.0863 86.62C69.2197 86.74 69.3597 86.8 69.5063 86.8ZM82.2413 86.8H83.1413V89.2H81.2413C80.348 89.2 79.6213 88.94 79.0613 88.42C78.5147 87.8867 78.2413 87.2133 78.2413 86.4V75H81.6413V86.2C81.6413 86.3467 81.7013 86.4867 81.8213 86.62C81.9547 86.74 82.0947 86.8 82.2413 86.8ZM90.5834 86.1V85.7C90.5834 85.38 90.3834 85.18 89.9834 85.1L86.5834 84.5C85.9967 84.38 85.4967 84.0867 85.0834 83.62C84.6834 83.1533 84.4834 82.58 84.4834 81.9V81.1C84.4834 80.2867 84.7434 79.6333 85.2634 79.14C85.7834 78.6467 86.49 78.4 87.3834 78.4H93.3834V79.9L92.5834 80.8H88.3834C88.05 80.8 87.8834 80.9667 87.8834 81.3V81.6C87.8834 81.92 88.0834 82.12 88.4834 82.2L91.8834 82.8C92.47 82.92 92.9634 83.2133 93.3634 83.68C93.7767 84.1467 93.9834 84.72 93.9834 85.4V86.3C93.9834 87.1133 93.7234 87.7667 93.2034 88.26C92.6834 88.7533 91.9767 89 91.0834 89H84.4834V86.6H90.0834C90.4167 86.6 90.5834 86.4333 90.5834 86.1Z" fill="white"/>
</svg>
