<svg width="173" height="50" viewBox="0 0 173 50" fill="none" xmlns="http://www.w3.org/2000/svg">
<path d="M166.438 50H6.40144C2.88225 50 0 47.1859 0 43.75V6.25C0 2.81406 2.88225 0 6.40144 0H166.438C169.957 0 172.839 2.81406 172.839 6.25V43.75C172.839 47.1859 169.957 50 166.438 50Z" fill="black"/>
<path d="M166.438 1.00156C169.401 1.00156 171.813 3.35625 171.813 6.25V43.75C171.813 46.6438 169.401 48.9984 166.438 48.9984H6.40144C3.43758 48.9984 1.02583 46.6438 1.02583 43.75V6.25C1.02583 3.35625 3.43758 1.00156 6.40144 1.00156H166.438ZM166.438 0H6.40144C2.88225 0 0 2.81406 0 6.25V43.75C0 47.1859 2.88225 50 6.40144 50H166.438C169.957 50 172.839 47.1859 172.839 43.75V6.25C172.839 2.81406 169.957 0 166.438 0Z" fill="#A6A6A6"/>
<path d="M60.7089 12.8049C60.7089 13.8486 60.3889 14.6845 59.7583 15.308C59.0333 16.047 58.0891 16.4189 56.9321 16.4189C55.8262 16.4189 54.882 16.0408 54.1074 15.2955C53.3313 14.5392 52.944 13.6111 52.944 12.5002C52.944 11.3892 53.3313 10.4611 54.1074 9.71111C54.882 8.95955 55.8262 8.58142 56.9321 8.58142C57.4826 8.58142 58.0075 8.69236 58.5084 8.89861C59.0077 9.10642 59.4142 9.38767 59.7087 9.73455L59.0397 10.3939C58.526 9.80173 57.8267 9.50955 56.9321 9.50955C56.1255 9.50955 55.4261 9.78455 54.8324 10.3392C54.2451 10.8955 53.9506 11.6158 53.9506 12.5002C53.9506 13.3845 54.2451 14.1111 54.8324 14.6674C55.4261 15.2158 56.1255 15.497 56.9321 15.497C57.7883 15.497 58.5084 15.2158 59.0766 14.6611C59.451 14.2939 59.6639 13.7877 59.7199 13.1408H56.9321V12.2377H60.6513C60.6961 12.433 60.7089 12.622 60.7089 12.8049Z" fill="white" stroke="white" stroke-width="0.16" stroke-miterlimit="10"/>
<path d="M66.608 9.67336H63.1144V12.0484H66.2639V12.9515H63.1144V15.3265H66.608V16.2468H62.1254V8.75305H66.608V9.67336Z" fill="white" stroke="white" stroke-width="0.16" stroke-miterlimit="10"/>
<path d="M70.7723 16.2468H69.7833V9.67336H67.6404V8.75305H72.9168V9.67336H70.7723V16.2468Z" fill="white" stroke="white" stroke-width="0.16" stroke-miterlimit="10"/>
<path d="M76.7368 16.2468V8.75305H77.7242V16.2468H76.7368Z" fill="white" stroke="white" stroke-width="0.16" stroke-miterlimit="10"/>
<path d="M82.0994 16.2468H81.1183V9.67336H78.9675V8.75305H84.2502V9.67336H82.0994V16.2468Z" fill="white" stroke="white" stroke-width="0.16" stroke-miterlimit="10"/>
<path d="M94.2395 15.283C93.4825 16.0408 92.5447 16.4189 91.426 16.4189C90.301 16.4189 89.3632 16.0408 88.6062 15.283C87.8508 14.5267 87.4747 13.5986 87.4747 12.5002C87.4747 11.4017 87.8508 10.4736 88.6062 9.71736C89.3632 8.95955 90.301 8.58142 91.426 8.58142C92.5383 8.58142 93.4761 8.95955 94.2331 9.72361C94.9948 10.4861 95.3709 11.408 95.3709 12.5002C95.3709 13.5986 94.9948 14.5267 94.2395 15.283ZM89.3376 14.6549C89.9073 15.2158 90.6002 15.497 91.426 15.497C92.2454 15.497 92.9448 15.2158 93.5081 14.6549C94.0762 14.0939 94.3643 13.3736 94.3643 12.5002C94.3643 11.6267 94.0762 10.9064 93.5081 10.3455C92.9448 9.78455 92.2454 9.5033 91.426 9.5033C90.6002 9.5033 89.9073 9.78455 89.3376 10.3455C88.7694 10.9064 88.4814 11.6267 88.4814 12.5002C88.4814 13.3736 88.7694 14.0939 89.3376 14.6549Z" fill="white" stroke="white" stroke-width="0.16" stroke-miterlimit="10"/>
<path d="M96.758 16.2468V8.75305H97.9583L101.69 14.5812H101.734L101.69 13.1406V8.75305H102.678V16.2468H101.647L97.739 10.1312H97.6958L97.739 11.5781V16.2468H96.758Z" fill="white" stroke="white" stroke-width="0.16" stroke-miterlimit="10"/>
<path d="M87.2318 27.1907C84.2247 27.1907 81.7682 29.4251 81.7682 32.5079C81.7682 35.5657 84.2247 37.8235 87.2318 37.8235C90.2453 37.8235 92.7018 35.5657 92.7018 32.5079C92.7018 29.4251 90.2453 27.1907 87.2318 27.1907ZM87.2318 35.7297C85.5818 35.7297 84.1623 34.4001 84.1623 32.5079C84.1623 30.5907 85.5818 29.2844 87.2318 29.2844C88.8818 29.2844 90.3077 30.5907 90.3077 32.5079C90.3077 34.4001 88.8818 35.7297 87.2318 35.7297ZM75.3107 27.1907C72.2972 27.1907 69.8471 29.4251 69.8471 32.5079C69.8471 35.5657 72.2972 37.8235 75.3107 37.8235C78.3226 37.8235 80.7743 35.5657 80.7743 32.5079C80.7743 29.4251 78.3226 27.1907 75.3107 27.1907ZM75.3107 35.7297C73.6591 35.7297 72.2348 34.4001 72.2348 32.5079C72.2348 30.5907 73.6591 29.2844 75.3107 29.2844C76.9607 29.2844 78.3802 30.5907 78.3802 32.5079C78.3802 34.4001 76.9607 35.7297 75.3107 35.7297ZM61.1251 28.8204V31.0797H66.6511C66.4895 32.3422 66.0574 33.2704 65.3949 33.9172C64.5883 34.6985 63.332 35.5657 61.1251 35.5657C57.7243 35.5657 55.0613 32.886 55.0613 29.5657C55.0613 26.2454 57.7243 23.5657 61.1251 23.5657C62.9639 23.5657 64.3018 24.2672 65.2892 25.1766L66.92 23.5844C65.5389 22.2969 63.7017 21.3079 61.1251 21.3079C56.4616 21.3079 52.5424 25.0126 52.5424 29.5657C52.5424 34.1188 56.4616 37.8235 61.1251 37.8235C63.6457 37.8235 65.5389 37.0172 67.0272 35.5047C68.5524 34.0157 69.0277 31.9219 69.0277 30.2313C69.0277 29.7063 68.9829 29.2235 68.9028 28.8204H61.1251ZM119.132 30.5719C118.682 29.3829 117.295 27.1907 114.468 27.1907C111.668 27.1907 109.336 29.3454 109.336 32.5079C109.336 35.486 111.644 37.8235 114.737 37.8235C117.239 37.8235 118.682 36.3344 119.276 35.4672L117.419 34.2594C116.8 35.1438 115.957 35.7297 114.737 35.7297C113.526 35.7297 112.657 35.1876 112.1 34.1188L119.383 31.1766L119.132 30.5719ZM111.706 32.3422C111.644 30.2922 113.337 29.2422 114.55 29.2422C115.501 29.2422 116.307 29.7063 116.576 30.3704L111.706 32.3422ZM105.786 37.5001H108.181V21.8751H105.786V37.5001ZM101.865 28.3751H101.785C101.248 27.7532 100.222 27.1907 98.9224 27.1907C96.1954 27.1907 93.702 29.5282 93.702 32.5251C93.702 35.5047 96.1954 37.8235 98.9224 37.8235C100.222 37.8235 101.248 37.2563 101.785 36.6157H101.865V37.3782C101.865 39.411 100.753 40.5032 98.9592 40.5032C97.4965 40.5032 96.5891 39.4719 96.2146 38.6047L94.1325 39.4532C94.7327 40.8625 96.3218 42.5969 98.9592 42.5969C101.766 42.5969 104.135 40.9844 104.135 37.061V27.5141H101.865V28.3751ZM99.1273 35.7297C97.4773 35.7297 96.0962 34.3813 96.0962 32.5251C96.0962 30.6516 97.4773 29.2844 99.1273 29.2844C100.753 29.2844 102.035 30.6516 102.035 32.5251C102.035 34.3813 100.753 35.7297 99.1273 35.7297ZM130.341 21.8751H124.615V37.5001H127.002V31.5797H130.341C132.993 31.5797 135.593 29.7063 135.593 26.7266C135.593 23.7485 132.986 21.8751 130.341 21.8751ZM130.403 29.4063H127.002V24.0485H130.403C132.186 24.0485 133.204 25.4938 133.204 26.7266C133.204 27.936 132.186 29.4063 130.403 29.4063ZM145.163 27.161C143.438 27.161 141.644 27.9047 140.906 29.5532L143.025 30.4204C143.481 29.5532 144.32 29.2719 145.206 29.2719C146.445 29.2719 147.701 29.9985 147.721 31.2813V31.4454C147.289 31.2016 146.364 30.8407 145.226 30.8407C142.944 30.8407 140.618 32.0672 140.618 34.3563C140.618 36.4501 142.487 37.7985 144.589 37.7985C146.195 37.7985 147.082 37.0907 147.639 36.2672H147.721V37.475H150.027V31.4813C150.027 28.711 147.908 27.161 145.163 27.161ZM144.875 35.7235C144.094 35.7235 143.006 35.3454 143.006 34.4001C143.006 33.1907 144.363 32.7266 145.538 32.7266C146.589 32.7266 147.082 32.9532 147.721 33.2516C147.533 34.6985 146.258 35.7235 144.875 35.7235ZM158.429 27.5032L155.684 34.2766H155.602L152.765 27.5032H150.19L154.453 36.9688L152.021 42.236H154.516L161.085 27.5032H158.429ZM136.905 37.5001H139.3V21.8751H136.905V37.5001Z" fill="white"/>
<path d="M13.3602 9.42348C12.9841 9.80785 12.7665 10.4063 12.7665 11.1813V38.825C12.7665 39.6 12.9841 40.1985 13.3602 40.5829L13.453 40.6672L29.319 25.1829V24.8172L13.453 9.33286L13.3602 9.42348Z" fill="url(#paint0_linear_116_3261)"/>
<path d="M34.6007 30.3468L29.3179 25.1827V24.8171L34.6071 19.6531L34.7256 19.7202L40.9894 23.1999C42.777 24.1874 42.777 25.8124 40.9894 26.8062L34.7256 30.2796L34.6007 30.3468Z" fill="url(#paint1_linear_116_3261)"/>
<path d="M34.7255 30.2798L29.3179 25.0001L13.3591 40.583C13.9528 41.1923 14.921 41.2658 16.0221 40.6564L34.7255 30.2798Z" fill="url(#paint2_linear_116_3261)"/>
<path d="M34.7255 19.7203L16.0221 9.34376C14.921 8.74063 13.9528 8.81407 13.3591 9.42344L29.3179 25L34.7255 19.7203Z" fill="url(#paint3_linear_116_3261)"/>
<defs>
<linearGradient id="paint0_linear_116_3261" x1="27.9103" y1="39.1129" x2="6.93832" y2="17.6328" gradientUnits="userSpaceOnUse">
<stop stop-color="#00A0FF"/>
<stop offset="0.0066" stop-color="#00A1FF"/>
<stop offset="0.2601" stop-color="#00BEFF"/>
<stop offset="0.5122" stop-color="#00D2FF"/>
<stop offset="0.7604" stop-color="#00DFFF"/>
<stop offset="1" stop-color="#00E3FF"/>
</linearGradient>
<linearGradient id="paint1_linear_116_3261" x1="43.3171" y1="24.9982" x2="12.3381" y2="24.9982" gradientUnits="userSpaceOnUse">
<stop stop-color="#FFE000"/>
<stop offset="0.4087" stop-color="#FFBD00"/>
<stop offset="0.7754" stop-color="#FFA500"/>
<stop offset="1" stop-color="#FF9C00"/>
</linearGradient>
<linearGradient id="paint2_linear_116_3261" x1="31.785" y1="22.13" x2="3.34526" y2="-6.99883" gradientUnits="userSpaceOnUse">
<stop stop-color="#FF3A44"/>
<stop offset="1" stop-color="#C31162"/>
</linearGradient>
<linearGradient id="paint3_linear_116_3261" x1="9.34191" y1="49.7798" x2="22.0415" y2="36.7725" gradientUnits="userSpaceOnUse">
<stop stop-color="#32A071"/>
<stop offset="0.0685" stop-color="#2DA771"/>
<stop offset="0.4762" stop-color="#15CF74"/>
<stop offset="0.8009" stop-color="#06E775"/>
<stop offset="1" stop-color="#00F076"/>
</linearGradient>
</defs>
</svg>
