<svg width="47" height="78" viewBox="0 0 47 78" fill="none" xmlns="http://www.w3.org/2000/svg">
<path d="M2.395 66.0112C4.17496 70.2562 7.04717 76.3229 9.36517 77.4821C9.36517 77.4821 27.1931 78.2091 33.5605 75.3939C39.9279 72.5787 45.2961 65.1306 45.3851 64.3148C45.4741 63.4989 45.4741 58.5914 45.4741 58.5914C45.4741 58.5914 47.3835 56.0468 46.9305 54.5039C46.4774 52.961 44.928 51.5069 44.5639 51.0545C44.1998 50.6021 40.7451 50.691 40.7451 50.691C40.7451 50.691 39.0177 52.6903 38.1965 52.961C37.9619 53.0377 37.3915 53.1104 36.6593 53.1669C36.5015 52.6015 36.3559 51.7452 36.8292 51.5069C37.5573 51.1434 38.4676 50.6829 38.4676 50.6829C38.4676 50.6829 37.7798 49.7822 37.4886 49.7822C37.1973 49.7822 37.1852 48.0575 36.5096 47.7829C35.834 47.5123 32.7393 47.0558 32.4683 47.7829C32.1972 48.5099 32.0152 49.7822 32.0152 49.7822C32.0152 49.7822 31.287 50.3881 31.3801 50.5416C31.4731 50.695 32.4723 51.0545 32.4723 51.0545L31.999 53.3487C31.5904 53.3487 31.2506 53.3406 31.016 53.3245C30.8461 53.3123 30.6843 53.2639 30.5305 53.1871C30.5548 53.066 30.5791 52.9488 30.6155 52.8277C30.6155 52.6782 30.6155 52.3914 30.6155 52.3187C30.6155 52.0118 30.6155 51.7048 30.6155 51.3978C30.6155 50.4971 30.5467 49.6247 30.5305 48.728C30.5184 47.9808 30.4739 47.3305 30.7409 46.5833C30.8825 46.1874 30.9796 45.8643 31.3396 45.6099C31.5378 45.4685 32.0718 45.4321 32.1325 45.3837C32.9578 44.7091 31.9667 43.76 32.2336 42.9239C32.4845 42.1403 33.0751 41.2073 33.4756 40.6257C33.8599 40.0683 33.7223 39.9552 33.8599 39.3372C33.9772 38.804 34.2766 38.7313 34.5031 38.2749C34.9804 37.3136 34.224 36.3039 33.9489 35.4072C33.6778 34.5307 33.8558 33.9774 34.4384 33.2544C34.8146 32.7899 34.8793 32.7899 35.4012 32.5273C35.8421 32.3012 36.2628 32.3537 36.2669 31.772C36.2669 31.4731 35.8138 31.045 35.7612 30.738C35.7086 30.4311 35.8947 29.8939 35.83 29.4778C35.7127 28.7225 35.6884 27.9834 34.9076 27.7007C33.9893 27.3695 33.4432 27.7249 32.7029 28.2702C32.4076 28.4883 32.0961 28.4681 31.728 28.4519C31.5055 28.4398 30.9391 28.2338 30.753 28.4196C30.5427 28.6256 30.8016 29.1345 30.8744 29.3486C30.9877 29.6838 30.9998 29.8131 30.8825 30.1241C30.6721 30.6855 30.3728 31.2146 30.1907 31.7801C30.0896 32.0911 29.9197 32.39 29.8469 32.7172C29.7902 32.9797 29.948 32.9272 29.7296 33.109C29.6365 33.1857 29.3533 33.222 29.2927 33.2261C28.4593 33.3069 27.9334 31.8084 27.4763 31.1783C27.0232 30.5482 26.5135 30.1604 25.9593 29.6434C25.8703 29.5627 25.7206 29.4738 25.6923 29.3446C25.6437 29.1466 25.8217 29.0901 25.8217 28.9528C25.8217 28.6175 25.5628 28.666 25.49 28.3631C25.4334 28.1288 25.7044 27.632 25.7691 27.4018C25.8662 27.0504 25.9714 26.703 26.1009 26.3597C26.2425 25.9841 26.3234 25.8185 26.6429 25.5802C26.9787 25.3338 27.2174 25.2934 27.2497 24.8289C27.3671 24.841 27.5087 24.7966 27.6219 24.8168C27.5855 24.7239 27.5976 24.5906 27.5491 24.4896C27.8121 24.5664 28.1883 24.5462 28.4795 24.5623C28.431 23.9443 28.168 24.0494 27.6786 23.9322C27.626 24.1261 27.5086 24.2957 27.359 24.4331C27.1688 24.3038 26.8412 24.3846 26.8128 24.1382C26.7926 23.9888 27.1243 23.6979 27.2012 23.5849C27.3428 23.3708 27.4722 23.2213 27.4561 22.9184C27.448 22.7124 27.3549 22.5711 27.2781 22.4135C27.5572 21.8279 27.8363 21.2422 28.1033 20.6485C28.6373 19.4691 29.1308 18.2775 29.6042 17.0698C29.7862 16.9891 30.0208 16.8477 30.0734 16.6175C30.122 16.4115 30.0775 16.1691 30.0249 15.9874C30.5467 14.5777 31.0039 13.1398 31.376 11.6777C31.5985 10.781 31.7927 9.87224 31.9181 8.95537C32.0435 8.81804 32.2013 8.59186 32.1891 8.34951C32.177 8.10717 32.1042 7.85674 32.0476 7.69114C32.0637 7.44476 32.0759 7.19434 32.0799 6.94796C32.1042 5.35657 31.9626 3.72074 31.3194 2.22629C30.9796 1.5033 30.5063 0.784353 29.7781 0.376407C29.0661 -0.0638503 28.1761 -0.0719344 27.4035 0.117902C25.8298 0.550081 24.5515 1.58813 23.3864 2.6504C22.2214 3.73287 21.1817 4.94055 20.1987 6.18054C21.206 4.9567 22.2618 3.76518 23.4431 2.70694C24.6203 1.6689 25.9188 0.663181 27.4439 0.275431C28.1964 0.109829 29.0257 0.130022 29.677 0.550084C30.3445 0.937834 30.7854 1.62044 31.0969 2.32324C31.6916 3.76922 31.8089 5.37272 31.7563 6.93584C31.7037 8.50703 31.3922 10.058 30.9796 11.5767C30.567 13.0954 30.0572 14.5939 29.4747 16.0601C28.8962 17.5303 28.2611 18.9763 27.5855 20.4061C27.3792 20.8464 27.1607 21.2785 26.9423 21.7148C26.9544 21.5169 26.9949 21.2947 26.8938 21.1412C26.5823 20.6727 26.287 21.4078 25.9795 21.6542C25.5507 21.9894 25.2392 22.357 24.8306 22.7649C24.2319 23.3667 24.3694 23.7222 24.3209 24.5502C23.3945 24.8976 22.8767 26.1456 22.3063 26.8848C21.7319 27.632 20.7327 28.7185 20.7165 29.7202C20.7084 30.2089 21.1089 30.7461 21.4972 31.2066C20.8459 32.2729 20.1865 33.3311 19.515 34.3813C19.3896 34.5792 19.4462 34.8377 19.6404 34.9629C19.8386 35.0881 20.1056 35.0275 20.231 34.8296C20.8419 33.8441 21.4366 32.8464 22.0231 31.8528C22.3063 32.2567 22.4155 32.8182 22.7028 33.1736C23.0021 33.5411 23.6089 33.8723 23.9851 34.1955C24.062 34.2641 24.1348 34.3368 24.2117 34.4055C24.2926 35.2779 24.3249 36.2029 24.0984 37.0147C23.9042 37.7014 23.3257 38.2466 23.257 38.9212C23.2246 39.2483 23.4309 39.4947 23.346 39.838C23.2893 40.0642 23.0062 40.347 22.8969 40.5893C22.5652 41.3365 22.4843 42.3584 22.4883 43.1703C22.4883 43.9296 22.6502 44.5637 22.3872 45.3029C22.0919 46.1228 21.4932 46.4621 20.9511 47.1164C20.4171 47.7586 20.4818 48.1706 20.4414 48.9744C20.4009 49.8266 20.0449 50.3315 19.693 51.107C19.3734 51.8179 19.0457 52.9367 18.9648 53.9788L12.201 56.8627C11.8814 56.6567 11.4566 56.5274 10.9145 56.6688C10.2754 56.8384 9.64025 57.5049 9.14267 58.1673L3.55602 60.5504C3.04226 60.304 2.58918 60.0051 2.45568 59.6658C2.0916 58.761 0.728311 58.761 0.728311 58.761L0.00014372 60.3969C-0.00390165 60.409 0.0608235 62.3477 2.395 66.0112ZM23.8638 54.516C24.1348 54.4191 24.3654 54.2656 24.5839 53.9384C24.9115 53.4618 24.8832 52.7509 25.3727 52.4076C25.664 52.9529 25.7327 53.6112 25.7853 54.2615C25.1704 54.3665 24.511 54.4594 23.8638 54.516Z" fill="#F2F2F2"/>
</svg>
