<svg width="125" height="133" viewBox="0 0 125 133" fill="none" xmlns="http://www.w3.org/2000/svg">
<path d="M0 117.52L2.8777 133C2.8777 133 68.7058 133 92.6838 133C100.416 130.018 109.448 124.863 115.028 117.553C116.51 117.072 117.913 116.07 118.471 114.635C118.822 113.745 118.631 112.959 118.2 112.31C118.766 111.059 119.253 109.777 119.603 108.43C120.265 105.881 120.703 103.275 120.99 100.758C122.696 100.718 122.545 97.9046 122.545 96.3734C122.545 95.5798 122.027 94.8423 121.445 94.2491C121.62 87.6437 120.959 82.7297 120.959 82.7297L91.7273 91.1388C90.5156 89.8562 88.7858 88.285 87.7017 88.4213C85.8922 88.6457 72.3168 94.0407 72.7712 94.4175C72.9386 94.5537 73.1379 95.4115 73.3132 96.4376L64.186 99.0669C64.1381 98.9787 64.0823 98.8986 64.0425 98.8104C63.4685 97.4076 64.6244 95.2191 64.9193 93.8002C65.294 91.9885 64.8396 89.6798 63.6917 88.1728C63.899 87.8762 64.6403 87.331 64.6802 87.0184C64.7759 86.2969 63.3888 84.5815 63.0142 83.9321C62.4801 82.9862 61.5793 82.2006 61.1728 81.2146C60.7423 80.1484 60.7822 78.954 60.3597 77.8558C58.9328 74.1362 54.971 72.3405 53.2492 68.9256C52.5317 67.4987 51.5831 64.8373 53.9108 64.6529C53.8869 64.0917 53.5999 63.5226 53.1934 63.1298C54.6043 61.2379 52.1332 60.1798 51.9418 58.4162C54.118 57.6627 56.2305 57.1015 58.1675 55.7628C59.2118 55.0413 59.8734 54.8249 60.838 54.6726C59.9531 56.5003 59.0763 58.344 58.2074 60.1878C57.9603 60.7249 58.1914 61.3582 58.7335 61.5987C59.2596 61.8311 59.8734 61.5987 60.1046 61.0696C61.1329 58.7529 62.1851 56.4442 63.2533 54.1355C64.0106 53.7507 64.5287 53.0933 64.9991 52.1234C65.4375 51.2095 65.4694 50.5602 65.2621 49.8547C66.8803 46.4638 68.5463 43.089 70.2602 39.7462C74.0147 32.4353 78.0005 25.2206 82.6079 18.4388C83.1739 17.5891 83.8116 16.7874 84.4095 15.9537C84.9994 15.112 85.6371 14.3184 86.3067 13.5489C87.5502 11.9215 89.0967 10.5908 90.5236 9.13186C93.6165 6.48648 97.1 4.29802 100.894 2.79897C104.681 1.2919 108.738 0.466221 112.82 0.281845C116.901 0.105486 121.03 0.45019 125 1.52438C121.062 0.362011 116.925 -0.0708698 112.812 0.00929339C108.698 0.105489 104.585 0.842989 100.703 2.29394C96.821 3.73688 93.2259 5.88525 90.0054 8.51461C89.8779 8.64287 89.7424 8.76311 89.6068 8.89137C89.5989 8.88336 89.0329 8.40238 88.6343 8.5627C88.2358 8.72303 85.9081 10.8233 85.9878 11.144C86.0675 11.4646 86.1791 12.2502 86.1791 12.2502L86.3226 12.1139C86.0835 12.3785 85.8364 12.643 85.6052 12.9316C84.9117 13.7012 84.2421 14.4948 83.6283 15.3365C83.0065 16.1622 82.3449 16.9638 81.755 17.8135C79.6346 20.7956 77.6497 23.8659 75.7445 26.9842C75.4576 26.7998 75.1228 26.6796 74.9235 26.9601C74.5249 27.5213 72.556 30.327 72.835 30.84C72.9386 31.0244 73.0263 31.2328 73.098 31.4252C71.6472 33.9263 70.2283 36.4435 68.8572 38.9846C68.2992 40.0187 67.7492 41.0609 67.1992 42.103C66.7926 41.9747 66.2904 41.8224 65.7803 41.6781C65.7404 41.2132 65.581 40.7803 65.3339 40.4195C65.5172 40.2592 65.6687 40.0909 65.6527 39.9065C65.6288 39.658 65.1744 39.3774 64.9193 39.145C65.0469 38.3273 65.1904 37.0286 64.8635 36.6358C64.3773 36.0507 63.3171 35.9545 63.3171 35.9545L62.5439 36.8282C62.5439 36.8282 61.8663 36.243 61.2844 36.4354C61.0213 36.5236 60.7583 37.2451 60.551 37.9986C60.0249 38.2872 59.5067 38.5918 59.0444 38.9846C58.0719 39.7943 57.9364 40.4195 57.9284 41.7022C57.9125 43.2092 57.6893 43.8906 56.7088 44.9888C55.808 45.9909 54.7956 46.9448 53.6477 47.6743C52.7789 48.2274 51.8143 49.005 50.8258 49.6223C49.5504 48.7164 48.3308 47.6823 47.0235 46.9128C45.6524 46.1111 44.632 44.9488 43.3167 44.1151C42.2805 43.4657 40.6702 43.5379 39.8173 42.9287C38.9723 42.3194 39.6738 40.4596 40.4471 40.131C41.4594 39.7061 42.416 40.0909 42.4798 38.672C42.5276 37.5898 42.4559 36.7401 42.9341 35.8583C43.4921 34.8322 42.6791 34.3031 41.9616 33.5335C41.6189 33.1728 41.1326 32.7159 41.1565 32.2028C41.1645 32.0104 41.3398 31.794 41.3797 31.5775C41.4275 31.2569 41.3239 30.5755 41.3239 30.2549C41.3239 29.9262 42.4558 29.5815 42.6711 29.4773C43.5001 29.0524 43.6117 28.1866 42.5993 28.0263C41.5312 27.858 40.4391 28.355 39.3789 28.0023C37.7527 27.4572 37.4338 25.6134 35.449 25.5172C33.8547 25.4371 32.0372 26.0463 30.706 26.9601C29.5979 27.7217 27.6529 29.5254 27.4855 30.9122C27.4217 31.4172 27.7087 31.7379 27.7087 32.1387C27.7087 32.3952 27.4696 32.8441 27.4855 33.0445C27.621 34.5837 27.7884 33.6778 28.9363 34.1668C29.2313 36.1068 31.0487 37.8062 32.0611 39.3854C31.5111 39.6099 30.9291 39.5297 30.3393 39.5618C30.6103 40.2031 30.8574 41.0849 30.8255 41.8064C30.7378 43.6902 28.8566 44.564 28.2667 46.3917C27.7326 48.0511 27.2463 50.1113 27.1985 51.8508C27.1108 55.2578 29.3827 58.7449 30.3871 61.9594C31.0726 64.1719 31.519 66.4566 32.2126 68.653C33.3684 68.3003 34.4525 68.1159 35.6642 68.6931C35.728 70.8014 36.836 72.6051 37.2904 74.6332C37.6969 76.4208 37.4737 78.7375 37.5773 80.5733C38.239 80.7897 38.7093 81.391 39.2912 81.7517C38.6933 82.7698 39.7376 84.5814 39.8093 85.7278C39.905 87.2509 40.5028 89.1668 40.2876 90.6257C40.0166 90.4093 39.7137 90.5135 39.4506 90.4093C38.8926 91.8042 39.4905 93.8643 39.4108 95.3874C37.9679 95.0828 37.9281 96.654 37.9121 97.648C36.9077 98.0569 35.999 99.6842 35.2975 101.279C34.7395 100.253 34.2851 99.5078 34.054 99.3395C33.1452 98.6581 16.8596 102.754 16.8596 103.203C16.8596 103.66 18.4459 104.895 18.4459 104.895C18.4459 104.895 17.3937 109.055 18.3821 112.222L0 117.52ZM56.653 51.5943C56.9798 51.0812 57.2986 50.5602 57.6255 50.0552C58.5422 48.6363 59.435 47.1933 60.3995 45.8065C60.838 45.1732 61.3481 44.6281 61.9061 44.1311C62.3047 44.3796 62.767 44.5239 63.2692 44.5239C64.4809 44.5239 65.4853 43.6902 65.7723 42.5599L66.8165 42.9367C65.7803 44.9087 64.7519 46.8967 63.7475 48.8848C63.1258 48.9649 62.4801 48.973 61.9061 49.2295C60.7822 49.7345 60.6706 50.6804 59.2756 51.0412C58.3987 51.2656 57.5298 51.4981 56.653 51.5943ZM52.6912 102.37L45.1502 104.542C45.214 104.39 45.2857 104.237 45.3813 104.101C45.9633 103.211 46.9597 102.795 47.7249 102.137C48.841 101.183 49.1917 99.9648 49.5982 98.5619C50.1244 96.7422 50.3077 94.8263 50.5947 92.9505C50.8498 91.251 51.0251 89.5355 51.2164 87.8361C51.3201 86.9142 51.2723 85.1105 51.8063 84.4933C52.6593 86.4492 52.7948 88.5415 53.5202 90.5055C53.9586 91.6999 55.0108 92.5336 55.2101 93.8162C55.3855 94.9626 54.8594 96.0047 54.0941 96.8063C53.0818 97.8805 52.8426 97.5599 52.8346 99.2433C52.8346 99.9006 52.6991 101.135 52.6912 102.37Z" fill="#F2F2F2"/>
</svg>
