<svg width="97" height="137" viewBox="0 0 97 137" fill="none" xmlns="http://www.w3.org/2000/svg">
<path d="M2.7151 114.268C2.7151 114.268 1.51391 118.556 2.97417 122.901C4.43443 127.255 12.042 134.598 12.042 134.598C12.042 134.598 28.5052 141.66 45.0941 144.159C61.683 146.666 82.4565 147.666 90.2053 140.136C97.9541 132.607 97.6715 118.508 96.1249 111.124C94.5704 103.74 89.0277 101.039 89.0277 101.039L90.1425 98.7256L88.9099 97.0972C88.9099 97.0972 80.164 105.723 74.0796 109.705C71.4574 111.422 68.9922 112.881 66.2287 114.034C66.1973 113.478 66.1188 112.922 66.0403 112.373C65.742 110.245 65.8911 107.964 66.0246 105.82C66.2915 101.426 66.9824 97.073 67.5712 92.7199C67.6733 91.938 67.5084 90.7449 67.8696 90.0839C68.1208 89.6244 68.7017 89.6163 68.8509 88.923C69.0236 88.133 68.3563 87.7461 68.3249 87.1254C68.2856 86.3434 68.4898 86.7304 68.9922 86.2064C69.9736 85.1906 69.0393 84.5377 69.3298 83.1995C69.5182 82.3289 70.1855 81.7082 70.6566 81.0068C71.4103 79.8783 71.3396 78.661 71.3632 77.2986C71.3946 75.509 70.6409 74.3401 72.1326 73.276C73.8676 72.0346 75.8303 70.5271 76.2621 68.3264C76.639 66.4159 76.3485 64.9568 75.1944 63.409C73.4201 61.0309 71.0963 59.3622 71.0413 56.0894C70.9785 52.3328 71.7871 48.6085 70.5074 44.9486C69.5496 42.1997 67.2258 41.6435 65.161 40.1522C63.7792 39.1526 63.0569 37.8225 62.4132 36.3553C62.2091 35.8877 61.5967 35.2267 61.5261 34.7269C61.4004 33.7434 62.5388 33.8644 62.7194 33.0744C62.8842 32.365 60.5761 30.6076 59.8224 30.5995C59.5005 29.7612 59.5005 28.8019 59.2179 27.9312C58.9117 26.972 58.7547 26.0771 58.5348 25.0856C58.0167 22.7559 56.4073 22.0546 54.1619 21.6354C52.8822 21.4016 50.3856 20.8615 49.2944 21.7885C47.6457 23.1831 48.0539 25.8675 47.3552 27.6813C46.5151 27.2702 44.8194 27.238 43.8616 27.5927C39.4651 29.2211 46.3581 31.9135 46.2639 32.2118C46.1148 32.6552 46.0441 33.2436 46.1305 33.7354C46.4445 33.5903 46.6172 33.6548 46.7899 33.3242C46.8449 33.7918 46.9862 34.211 47.1825 34.6463C47.418 34.4287 47.6378 34.3642 47.7635 34.0256C49.9617 35.0332 47.4101 38.153 50.4877 37.9998C50.4406 38.9269 51.1079 39.9265 51.8538 40.4424C51.1943 41.1518 50.3935 41.6838 49.6712 42.2884C47.63 44.0055 45.6908 46.0853 45.3532 48.8664C45.1727 50.3497 45.3611 51.9297 45.3925 53.4453C45.416 54.727 44.9842 55.9443 45.0863 57.1938C43.7045 57.3066 42.4641 57.7177 41.1687 58.0724C39.4258 57.0003 37.4081 55.8475 36.7958 53.9934C36.1834 52.1393 34.4876 51.6234 32.729 51.3574C31.5828 48.81 30.3816 46.1659 29.149 43.4895C29.3688 42.9494 29.5808 42.1514 29.2118 41.6355C28.8978 41.2001 28.4189 41.0712 28.0185 41.047C24.4385 33.3162 20.7093 25.5773 17.5847 19.7329C17.5297 18.9913 17.3962 18.0803 17.1136 17.6208C16.8545 17.2097 16.4855 17.1291 16.1715 17.1533C15.567 16.0731 14.9939 15.0896 14.4522 14.219C5.75338 0.0875155 0.367678 -2.01648 0.0300906 1.48212C-0.307497 4.98073 2.30684 13.2436 2.30684 13.2436C2.30684 13.2436 -0.331046 1.44182 1.70233 1.20804C3.73571 0.97426 11.3746 10.0755 14.829 16.9356C16.7446 20.7406 24.1872 37.2582 30.4287 51.2123C29.989 51.3171 29.7535 51.6315 30.1461 52.3892C30.3345 52.7681 30.9076 52.8165 30.9704 53.3002C31.0097 53.5581 30.625 54.2433 30.5936 54.4771C30.5151 55.1301 30.8369 56.1861 31.0646 56.7504C31.4022 57.5888 32.0146 57.6613 32.7133 58.0241C33.0273 58.1934 33.3571 58.3465 33.6868 58.4997C34.4169 60.1361 35.1078 61.6758 35.7359 63.0946C35.6024 63.0382 35.469 62.9818 35.3355 62.9415C33.4356 61.8854 31.4336 66.8028 33.0195 68.7859C34.1736 70.2369 36.1284 70.7206 37.5416 69.2132C37.785 68.9552 37.9655 68.6972 38.1226 68.4312C39.1118 70.6481 39.6927 71.954 39.6927 71.954C39.6927 71.954 41.365 73.5663 41.7575 71.8895C41.7575 71.8895 41.4121 71.0753 40.7919 69.6404C41.836 69.6404 43.0215 69.3744 43.9872 69.1164C44.9999 68.8504 46.7036 68.4957 47.5672 67.8911C46.6722 69.7291 46.7428 71.9943 45.5102 73.7597C44.3483 75.4284 43.3984 76.5489 42.7075 78.5159C41.2629 82.6352 38.468 86.1661 36.6309 90.108C34.9194 93.784 34.4484 97.6776 33.7496 101.62C33.624 102.313 33.6868 103.111 33.5376 103.764C33.3885 104.433 32.9959 104.506 32.7054 105.054C32.0852 106.223 32.8154 108.488 32.5092 109.963C32.0067 112.365 31.5671 114.888 31.5278 117.371C30.3188 117.347 29.1725 117.315 28.1127 117.267L22.0047 107.391L20.8428 108.036L25.883 117.138C24.5562 117.041 23.4257 116.928 22.5857 116.775C22.0126 116.67 21.3531 116.541 20.6465 116.388C20.1676 115.13 19.4532 113.421 19.0842 113.244C18.4875 112.962 12.0812 111.35 12.1047 111.954C12.1205 112.559 12.8898 113.445 12.8898 113.445L11.9242 114.276C8.73671 113.445 6.22445 112.752 6.22445 112.752C6.22445 112.752 4.48938 109.125 3.90057 109.165C3.31175 109.205 2.00067 109.85 2.00067 109.85L2.7151 114.268ZM38.0126 61.7161C37.8399 61.9096 37.6908 62.087 37.5651 62.2482C37.2825 61.6114 36.992 60.9503 36.6937 60.2732C37.1569 60.7004 37.5966 61.1922 38.0126 61.7161ZM55.2375 116.702C54.4288 116.783 53.5966 116.863 52.7252 116.92C51.0294 117.025 49.1923 117.121 47.2845 117.194C46.5937 116.452 45.9263 115.775 45.8243 115.775C45.6045 115.783 44.1363 116.13 43.0922 115.864C42.6918 115.759 42.362 116.46 42.103 117.363C41.4592 117.379 40.8154 117.396 40.1716 117.404C40.1716 117.363 40.1795 117.315 40.1795 117.283C40.2894 116.307 40.313 115.203 40.6348 114.268C40.9175 113.478 41.4513 112.817 41.6947 112.019C42.0951 110.705 41.8517 109.697 42.4955 108.399C42.943 107.488 42.5819 106.585 42.9509 105.82C43.2963 105.102 44.521 105.046 44.7409 104.304C44.8979 103.78 44.152 103.369 44.1756 102.942C44.207 102.418 45.0392 101.66 45.3218 101.2C46.8213 98.7578 49.0196 96.412 50.9431 94.2596C52.7174 92.2685 52.6938 95.7106 52.9921 97.1214C53.4004 99.048 53.7929 101.055 54.3896 102.934C54.7586 104.086 54.9627 104.699 54.79 105.908C54.578 107.383 54.8763 108.383 55.0883 109.834C55.2924 111.188 55.2061 112.615 55.3317 113.961C55.4181 114.864 55.316 115.783 55.2375 116.702Z" fill="white"/>
</svg>
