<svg width="274" height="287" viewBox="0 0 274 287" fill="none" xmlns="http://www.w3.org/2000/svg">
<path d="M293 273.92L286.255 310C286.255 310 131.954 310 75.7491 310C57.6246 303.049 36.4545 291.035 23.3749 273.995C19.8995 272.874 16.611 270.538 15.303 267.193C14.4809 265.119 14.9293 263.288 15.9383 261.775C14.6117 258.86 13.4719 255.871 12.6497 252.732C11.0989 246.79 10.0712 240.717 9.39856 234.85C5.39996 234.757 5.75497 228.199 5.75497 224.63C5.75497 222.78 6.96951 221.061 8.3335 219.678C7.92242 204.282 9.47327 192.829 9.47327 192.829L77.9913 212.429C80.8314 209.439 84.8861 205.777 87.4272 206.095C91.6687 206.618 123.489 219.193 122.424 220.071C122.032 220.388 121.565 222.388 121.154 224.779L142.548 230.908C142.66 230.702 142.791 230.516 142.884 230.31C144.23 227.04 141.52 221.939 140.829 218.632C139.951 214.409 141.016 209.028 143.707 205.515C143.221 204.824 141.483 203.554 141.39 202.825C141.165 201.143 144.417 197.145 145.295 195.631C146.547 193.426 148.658 191.595 149.611 189.297C150.62 186.812 150.527 184.028 151.517 181.468C154.862 172.799 164.148 168.613 168.184 160.654C169.866 157.328 172.089 151.124 166.633 150.695C166.689 149.387 167.362 148.06 168.315 147.145C165.007 142.735 170.8 140.269 171.248 136.158C166.147 134.402 161.196 133.094 156.655 129.973C154.208 128.292 152.657 127.787 150.396 127.432C152.47 131.692 154.525 135.99 156.562 140.287C157.141 141.539 156.599 143.015 155.329 143.576C154.095 144.118 152.657 143.576 152.115 142.343C149.704 136.943 147.238 131.562 144.734 126.18C142.959 125.284 141.745 123.751 140.642 121.491C139.615 119.361 139.54 117.847 140.026 116.203C136.233 108.299 132.327 100.433 128.31 92.6415C119.509 75.6011 110.167 58.7849 99.367 42.9777C98.0404 40.9971 96.5455 39.1286 95.1441 37.1854C93.7615 35.2235 92.2666 33.3738 90.6971 31.58C87.7822 27.787 84.1574 24.6854 80.8128 21.2848C73.563 15.1189 65.3976 10.0179 56.5035 6.52391C47.6281 3.0112 38.1175 1.08668 28.5507 0.656933C18.984 0.24587 9.30515 1.04932 0 3.55306C9.23041 0.843785 18.9279 -0.165185 28.5694 0.0216613C38.2108 0.245877 47.8523 1.96486 56.9519 5.34678C66.0516 8.71002 74.4785 13.7175 82.0273 19.8461C82.3262 20.145 82.6439 20.4253 82.9615 20.7243C82.9802 20.7056 84.3069 19.5845 85.2411 19.9582C86.1754 20.3319 91.6314 25.2273 91.4445 25.9746C91.2577 26.722 90.9961 28.5531 90.9961 28.5531L90.6598 28.2355C91.2203 28.8521 91.7995 29.4687 92.3414 30.1413C93.967 31.935 95.5366 33.7848 96.9753 35.7467C98.4327 37.6712 99.9836 39.5397 101.366 41.5203C106.337 48.471 110.989 55.6272 115.455 62.8955C116.127 62.4658 116.912 62.1855 117.379 62.8394C118.314 64.1474 122.929 70.687 122.275 71.8828C122.032 72.3126 121.826 72.7984 121.658 73.2468C125.059 79.0764 128.385 84.9434 131.599 90.8664C132.907 93.2767 134.196 95.7057 135.485 98.1347C136.438 97.8358 137.615 97.4808 138.811 97.1445C138.904 96.0608 139.278 95.0518 139.857 94.211C139.428 93.8373 139.073 93.4449 139.11 93.0152C139.166 92.4359 140.231 91.782 140.829 91.2401C140.53 89.3343 140.194 86.3074 140.96 85.3918C142.1 84.0278 144.585 83.8036 144.585 83.8036L146.397 85.8403C146.397 85.8403 147.985 84.4763 149.349 84.9247C149.966 85.1302 150.583 86.8119 151.068 88.5682C152.302 89.2409 153.516 89.9509 154.6 90.8664C156.88 92.7536 157.197 94.211 157.216 97.2005C157.253 100.713 157.776 102.301 160.075 104.861C162.186 107.197 164.559 109.42 167.25 111.121C169.286 112.41 171.547 114.222 173.864 115.661C176.854 113.55 179.713 111.139 182.777 109.346C185.991 107.477 188.383 104.768 191.466 102.825C193.895 101.311 197.669 101.479 199.668 100.059C201.649 98.6392 200.005 94.3044 198.192 93.5383C195.819 92.548 193.577 93.4449 193.427 90.1377C193.315 87.6153 193.483 85.6347 192.362 83.5794C191.054 81.1878 192.96 79.9546 194.642 78.1609C195.445 77.3201 196.585 76.255 196.529 75.0592C196.51 74.6108 196.099 74.1063 196.006 73.6018C195.894 72.8544 196.137 71.2662 196.137 70.5188C196.137 69.7528 193.484 68.9493 192.979 68.7064C191.036 67.7161 190.774 65.6982 193.147 65.3245C195.651 64.9321 198.211 66.0906 200.696 65.2685C204.508 63.9979 205.255 59.7004 209.908 59.4762C213.645 59.2894 217.905 60.7094 221.025 62.8394C223.622 64.6145 228.182 68.8185 228.574 72.051C228.723 73.2281 228.051 73.9755 228.051 74.9097C228.051 75.5076 228.611 76.554 228.574 77.0211C228.256 80.6086 227.864 78.4972 225.173 79.637C224.482 84.1586 220.222 88.1198 217.849 91.8007C219.138 92.3238 220.502 92.137 221.885 92.2117C221.249 93.7065 220.67 95.7618 220.745 97.4434C220.95 101.834 225.36 103.871 226.743 108.131C227.995 111.999 229.135 116.801 229.247 120.855C229.452 128.796 224.127 136.924 221.773 144.417C220.166 149.574 219.119 154.899 217.494 160.018C214.784 159.196 212.243 158.766 209.403 160.112C209.254 165.026 206.656 169.23 205.591 173.957C204.638 178.124 205.162 183.524 204.919 187.802C203.368 188.307 202.265 189.708 200.901 190.549C202.303 192.922 199.855 197.145 199.687 199.817C199.463 203.367 198.061 207.832 198.566 211.233C199.201 210.728 199.911 210.971 200.528 210.728C201.836 213.98 200.434 218.782 200.621 222.332C204.003 221.622 204.097 225.284 204.134 227.601C206.488 228.554 208.618 232.347 210.263 236.065C211.571 233.673 212.636 231.936 213.178 231.543C215.308 229.955 253.481 239.503 253.481 240.549C253.481 241.614 249.763 244.492 249.763 244.492C249.763 244.492 252.229 254.189 249.912 261.569L293 273.92ZM160.205 120.257C159.439 119.062 158.692 117.847 157.926 116.67C155.777 113.363 153.684 110 151.423 106.767C150.396 105.291 149.2 104.02 147.892 102.862C146.958 103.441 145.874 103.778 144.697 103.778C141.857 103.778 139.502 101.834 138.83 99.1998L136.382 100.078C138.811 104.674 141.221 109.308 143.576 113.942C145.033 114.129 146.547 114.147 147.892 114.745C150.527 115.923 150.788 118.127 154.058 118.968C156.113 119.491 158.15 120.033 160.205 120.257ZM169.492 238.606L187.168 243.669C187.018 243.314 186.85 242.959 186.626 242.642C185.262 240.568 182.926 239.596 181.133 238.064C178.517 235.841 177.695 233.001 176.742 229.731C175.509 225.489 175.079 221.024 174.406 216.652C173.808 212.69 173.397 208.692 172.949 204.731C172.706 202.582 172.818 198.378 171.566 196.939C169.567 201.498 169.249 206.375 167.549 210.953C166.521 213.737 164.055 215.68 163.587 218.669C163.176 221.341 164.41 223.77 166.203 225.639C168.576 228.143 169.137 227.395 169.156 231.319C169.156 232.851 169.473 235.729 169.492 238.606Z" fill="#F2F2F2"/>
</svg>
