<svg width="190" height="387" viewBox="0 0 190 387" fill="none" xmlns="http://www.w3.org/2000/svg">
<path d="M0.864698 170.107C1.73459 173.223 1.53888 175.227 5.06192 176.665C8.36749 178.016 11.8035 177.036 13.1084 180.565C14.2827 183.768 14.6089 187.254 16.153 190.501C19.1976 196.863 24.0689 202.615 29.0708 207.801C28.3749 213.858 29.7232 219.37 32.8331 225.035C33.8987 226.996 35.7037 233.489 37.1825 234.709C38.2916 235.624 40.0097 236.082 41.9017 236.191C43.424 241.965 43.4892 246.431 45.3377 251.966C46.1641 254.449 47.7516 256.105 49.2304 258.132C51.4269 261.138 50.47 261.574 50.3395 264.712C50.2308 267.522 52.5578 269.919 53.4711 272.512C54.4715 275.41 54.8195 279.114 54.254 282.208C53.1232 288.548 50.1873 294.191 49.4914 300.858C48.839 307.221 49.5349 313.67 49.8176 319.945C49.9264 322.429 50.3831 324.869 50.4701 327.309C50.6005 330.534 49.4697 333.759 50.818 336.896C52.0141 339.663 53.5581 340.513 53.2754 343.847C52.8405 348.749 50.3396 354.457 51.3399 359.338C52.3838 364.393 55.0587 364.872 59.5169 365.286C65.2146 365.831 69.9338 365.875 75.588 364.524C79.0458 363.696 82.7646 364.175 86.3746 363.979C86.0049 365.177 85.7657 366.245 85.9832 366.637C87.4185 369.23 85.0916 370.145 84.8523 372.89C84.6784 374.96 85.918 376.355 87.0923 378.316C88.4189 380.516 89.18 383.458 91.2895 384.787C93.5729 386.225 98.9445 387.118 101.641 386.987C105.316 386.835 109.492 384.068 113.189 383.153C119.865 381.497 128.238 382.804 134.305 379.035C137.394 377.095 139.438 374.503 138.677 370.624C137.328 363.609 129.717 364.981 124.584 362.432C120.605 360.449 120.192 355.482 120.757 351.669C121.148 348.945 121.692 345.938 123.454 343.738C124.28 342.714 125.998 341.973 126.455 340.622C127.259 338.291 125.411 338.4 125.302 336.635C125.215 335.175 127.542 331.1 127.955 329.423C129.369 323.518 129.934 317.396 130.695 311.382C131.348 306.305 129.63 302.253 132.109 297.547C135.11 291.86 131.565 287.611 131.522 281.685C131.5 279.855 131.544 278.024 131.565 276.216C132.566 275.323 133.349 273.993 133.936 272.054C135.328 267.413 134.871 261.029 134.653 256.476C134.371 250.615 132.022 246.649 127.368 245.059C125.563 240.81 123.736 236.561 122.04 232.247C120.779 229.001 118.213 224.73 118.213 221.201C118.213 218.39 118.8 218.673 121.04 218.237C123.649 217.714 125.193 217.693 127.259 215.579C132.044 210.655 134.784 203.225 133.066 196.427C131.283 189.455 125.063 187.189 120.474 182.265C117.582 179.171 114.407 176.317 111.362 173.375C112.58 170.586 112.276 166.468 111.275 163.266C110.753 161.544 109.514 156.882 107.839 156.141C107.578 156.032 107.252 155.966 106.904 155.945C104.642 151.936 102.054 147.839 99.3142 144.114C99.5534 143.939 99.7709 143.765 99.9014 143.504C101.641 140.083 96.4653 140.845 94.5516 141.238C93.312 136.575 92.0072 131.694 90.7241 126.639C91.4417 126.639 92.1376 126.618 92.8553 126.552C95.0083 126.334 98.0094 125.31 97.8789 123.023C97.7049 120.059 94.2689 118.186 91.7027 117.096C90.6806 116.66 89.354 116.29 88.0274 115.876C82.7863 94.4582 78.176 72.2996 77.48 58.4858C76.11 31.2287 90.4848 0.703365 121.975 10.1159C153.465 19.5284 190 98.7069 190 98.7069C190 98.7069 167.948 33.5601 128.216 9.20079C123.323 6.19401 118.669 4.29842 114.298 3.31795C113.167 0.354747 111.688 -0.0592228 107.622 0.00614194C103.903 0.0497185 102.468 0.943044 101.315 3.23081C90.8111 5.62752 82.6341 14.1685 77.393 25.7381C75.501 25.433 74.7834 26.0649 73.6308 29.3985C72.7174 32.0131 71.6083 35.0852 73.4785 36.8937C70.4774 48.2889 69.7815 61.2529 71.804 73.7812C73.0219 81.2981 74.6747 89.6648 76.5884 98.3365C76.4362 98.1622 76.2839 97.9661 76.11 97.7918C73.1524 94.9594 69.2161 94.4582 65.6496 92.8023C62.518 91.3425 60.9304 89.4469 57.3421 90.2531C53.4711 91.1464 49.6437 90.9068 45.7727 92.1705C43.1195 93.042 40.2706 93.761 37.9654 95.4387C36.2256 96.7024 34.899 98.7069 33.5942 100.363C32.1372 102.237 31.5065 104.481 30.4844 106.616C29.5928 108.446 28.3314 110.037 27.7225 111.976C27.0266 114.198 26.5916 116.53 26.1349 118.817C25.9175 119.885 25.6783 120.866 26.2002 121.759C26.3089 121.955 26.4611 122.129 26.6351 122.282C26.3959 122.718 26.1784 123.153 26.0045 123.611C25.2868 125.485 25.7 127.446 25.2868 129.298C25.7652 128.513 26.7221 128.513 27.4615 128.099C26.3742 129.232 26.1349 131.302 26.0479 132.74C26.5046 132.522 27.1788 132.413 27.94 132.392C27.8965 132.718 27.8965 133.067 27.8312 133.394C27.4398 135.442 25.8522 137.882 24.1559 139.102C21.829 140.802 19.0453 140.388 16.6314 141.63C15.3918 142.262 14.348 143.373 13.3041 144.244C12.2385 145.138 11.6948 145.944 10.8902 147.033C9.80279 148.558 8.41099 150.694 6.86694 151.696C5.19241 152.785 3.08292 152.175 2.23478 154.485C1.19092 157.317 2.73498 159.474 1.19093 162.416C-0.548849 165.793 -0.135672 166.556 0.864698 170.107ZM83.3735 126.727C85.2873 134.2 87.2228 141.477 89.0713 148.232C83.3735 147.186 78.0237 147.273 78.3934 139.843C84.6131 137.011 81.1553 132.501 80.6551 128.099C80.8726 127.576 81.0683 127.097 81.1771 126.705C81.8947 126.77 82.6341 126.77 83.3735 126.727ZM102.228 150.389C103.468 152.219 104.512 154.136 105.469 156.097C104.164 156.402 102.685 157.143 101.489 158.036C100.967 156.838 100.38 155.683 99.5969 154.572C98.9663 153.722 98.2921 152.938 97.5527 152.262C96.9003 149.909 96.2044 147.404 95.5085 144.833C96.4001 144.789 97.3787 144.746 98.2051 144.549C98.3139 144.702 98.4443 144.876 98.5531 145.029C99.8144 146.794 101.01 148.58 102.228 150.389ZM80.1114 318.507C80.5681 315.457 81.2858 312.472 81.9382 309.465C82.8081 305.434 84.8088 302.514 86.3311 298.767C87.5055 295.869 86.6139 291.075 88.5929 288.809C95.7477 292.208 92.8988 302.253 93.3772 308.615C93.7252 313.082 93.8122 317.592 94.6168 321.993C95.2692 325.653 95.6172 329.161 94.856 332.844C93.5947 338.944 89.8977 344.282 88.7233 350.318C88.7016 350.296 88.6581 350.274 88.6363 350.252C86.2876 347.856 84.4391 345.35 80.8726 344.892C80.5899 338.901 81.6338 332.865 80.7639 326.895C80.2854 323.758 79.633 321.71 80.1114 318.507Z" fill="#F2F2F2"/>
</svg>
